<?xml version="1.0" encoding="utf-8"?>
<!-- Generator: Adobe Illustrator 18.1.1, SVG Export Plug-In . SVG Version: 6.00 Build 0)  -->
<svg version="1.1" id="Layer_1" xmlns="http://www.w3.org/2000/svg" xmlns:xlink="http://www.w3.org/1999/xlink" x="0px" y="0px"
	 viewBox="0 0 122.2 172.8" enable-background="new 0 0 122.2 172.8" xml:space="preserve">
<g>
	<g>
		<g>
			<defs>
				<rect id="SVGID_1_" x="1.6" y="0" width="118.8" height="118.8"/>
			</defs>
			<clipPath id="SVGID_2_">
				<use xlink:href="#SVGID_1_"  overflow="visible"/>
			</clipPath>
			<path clip-path="url(#SVGID_2_)" fill="#FFFFFF" d="M25.1,24c0.5,0,1,0.2,1.4,0.6c0,0-0.1,0-0.1,0c-0.2,0-0.5,0.1-0.7,0.1
				c-0.4,0.1-0.7,0.1-1.1,0.2c-0.2,0-0.5,0.1-0.7,0.1c-0.2,0-0.5,0.1-0.7,0.1C23.5,24.4,24.2,24,25.1,24"/>
			<path clip-path="url(#SVGID_2_)" fill="#FFFFFF" d="M48,24c0.8,0,1.5,0.5,1.9,1.2c-0.2,0-0.4-0.1-0.7-0.1c-0.2,0-0.5-0.1-0.7-0.2
				c-0.3-0.1-0.6-0.1-1-0.2c-0.3,0-0.5-0.1-0.8-0.1c0,0-0.1,0-0.1,0C46.9,24.2,47.5,24,48,24"/>
		</g>
		<rect x="1.1" y="0.4" fill="#B12024" width="119.8" height="118.8"/>
		<g>
			<defs>
				<rect id="SVGID_3_" x="1.6" y="0" width="118.8" height="118.8"/>
			</defs>
			<clipPath id="SVGID_4_">
				<use xlink:href="#SVGID_3_"  overflow="visible"/>
			</clipPath>
			<path clip-path="url(#SVGID_4_)" fill="#422A19" d="M113.6,74l-1.9-1.6l-0.1,0V60c0-6.9-6.5-12.5-13.4-12.5v2.5
				c5.5,0,10.9,4.5,10.9,10v12.2l-2.8,1.7c-0.5,0.3-0.7,0.9-0.5,1.4c0,0.1,0.1,0.2,0.1,0.3c0.4,0.6,1.1,0.8,1.7,0.4l2.6-1.6l1.8,1.5
				c0.5,0.4,1.3,0.4,1.7-0.2C114.2,75.2,114.1,74.4,113.6,74"/>
			<path clip-path="url(#SVGID_4_)" fill="none" stroke="#422A19" stroke-width="0.8" stroke-miterlimit="10" d="M113.6,74l-1.9-1.6
				l-0.1,0V60c0-6.9-6.5-12.5-13.4-12.5v2.5c5.5,0,10.9,4.5,10.9,10v12.2l-2.8,1.7c-0.5,0.3-0.7,0.9-0.5,1.4c0,0.1,0.1,0.2,0.1,0.3
				c0.4,0.6,1.1,0.8,1.7,0.4l2.6-1.6l1.8,1.5c0.5,0.4,1.3,0.4,1.7-0.2C114.2,75.2,114.1,74.4,113.6,74z"/>
			<path clip-path="url(#SVGID_4_)" fill="#7E4F23" d="M58.4,33.6c-1.6,0-2.9-1-3.4-2.5l-0.2-1.3c0.1-1.9,1.7-3.5,3.6-3.5
				c1.3,0,3.8,1.9,5.7,3.6C62.3,31.7,59.7,33.6,58.4,33.6"/>
			<path clip-path="url(#SVGID_4_)" fill="#683D17" d="M82.5,97.9l0-8.4h7.7l0.9,1.7c0,0,0,0,0,0l-4.6,7.5c-0.3,0.4-0.7,0.7-1.3,0.7
				h-1.3C83.1,99.3,82.5,98.7,82.5,97.9"/>
			<path clip-path="url(#SVGID_4_)" fill="#7E4F23" d="M39.9,98.4V83.4c11-1.6,19.4-11,19.4-22.4c0,0,0-0.1,0-0.1c0,0,0-0.1,0-0.1
				l-1.8-12.5h34.6c5.5,0,10,4.5,10,10v39.6c0,0.8-0.7,1.5-1.5,1.5h-1.3c-0.5,0-1-0.3-1.3-0.8l-6.1-11c0,0-0.1-0.1-0.1-0.1
				c0-0.1-0.1-0.1-0.2-0.2c-0.1,0-0.1-0.1-0.2-0.1c-0.1,0-0.1-0.1-0.2-0.1c-0.1,0-0.2,0-0.3,0c-0.1,0-0.1,0-0.2,0H72.1
				c-0.8,0-1.5-0.7-1.5-1.5v-6.1c0-0.7-0.5-1.2-1.2-1.2c-0.7,0-1.2,0.6-1.2,1.2v18.4c0,0.8-0.7,1.5-1.5,1.5h-2.7
				c-0.4,0-0.9-0.2-1.1-0.5l-7.8-9.6c0,0,0,0-0.1-0.1c0,0,0,0-0.1-0.1c0,0-0.1,0-0.1-0.1c-0.1-0.1-0.1-0.1-0.2-0.1
				c-0.1,0-0.2,0-0.2-0.1c-0.1,0-0.2,0-0.2,0c-0.1,0-0.2,0-0.2,0c-0.1,0-0.2,0-0.2,0.1c-0.1,0-0.2,0.1-0.2,0.1c0,0-0.1,0-0.1,0.1
				c0,0,0,0.1-0.1,0.1c0,0,0,0-0.1,0.1l-9.3,10.3c-0.3,0.3-0.7,0.5-1.1,0.5h-1.4C40.6,99.9,39.9,99.3,39.9,98.4"/>
			<path clip-path="url(#SVGID_4_)" fill="#F2F2F2" d="M36.7,81.2c-10.7,0-19.5-8.4-20.1-19h40.3C56.2,72.8,47.4,81.2,36.7,81.2"/>
			<path clip-path="url(#SVGID_4_)" fill="#7E4F23" d="M16.7,59.7c0,0,4.4-31,4.3-31.2c0.2-0.1,0.6-0.3,1.3-0.5
				c1.5-0.5,3.6-0.9,6.2-1.2c4.9-0.5,11.2-0.5,16.1,0c2.6,0.3,4.8,0.7,6.2,1.2c0.9,0.3,1.2,0.6,1.4,0.7l4.5,31.1H16.7z"/>
			<path clip-path="url(#SVGID_4_)" fill="#7E4F23" d="M15,33.6c-1.3,0-3.8-1.9-5.7-3.6c1.9-1.7,4.5-3.6,5.7-3.6
				c1.5,0,3.7,1.4,3.5,3c0,0,0,0,0,0.1l-0.3,2.1C17.7,32.7,16.5,33.6,15,33.6"/>
			<path clip-path="url(#SVGID_4_)" fill="#422A19" d="M15,33.6c-1.3,0-3.8-1.9-5.7-3.6c1.9-1.7,4.5-3.6,5.7-3.6
				c1.5,0,3.7,1.4,3.5,3c0,0,0,0,0,0.1l-0.3,2.1C17.7,32.7,16.5,33.6,15,33.6 M16.7,59.7c0,0,4.4-31,4.3-31.2
				c0.2-0.1,0.6-0.3,1.3-0.5c1.5-0.5,3.6-0.9,6.2-1.2c4.9-0.5,11.2-0.5,16.1,0c2.6,0.3,4.8,0.7,6.2,1.2c0.9,0.3,1.2,0.6,1.4,0.7
				l4.5,31.1H16.7z M36.7,81.2c-10.7,0-19.5-8.4-20.1-19h40.3C56.2,72.8,47.4,81.2,36.7,81.2 M39.9,98.4V83.4
				c11-1.6,19.4-11,19.4-22.4c0,0,0-0.1,0-0.1c0,0,0-0.1,0-0.1l-1.8-12.5h34.6c5.5,0,10,4.5,10,10v39.6c0,0.8-0.7,1.5-1.5,1.5h-1.3
				c-0.5,0-1-0.3-1.3-0.8l-6.1-11c0,0-0.1-0.1-0.1-0.1c0-0.1-0.1-0.1-0.2-0.2c-0.1,0-0.1-0.1-0.2-0.1c-0.1,0-0.1-0.1-0.2-0.1
				c-0.1,0-0.2,0-0.3,0c-0.1,0-0.1,0-0.2,0H72.1c-0.8,0-1.5-0.7-1.5-1.5v-6.1c0-0.7-0.5-1.2-1.2-1.2c-0.7,0-1.2,0.6-1.2,1.2v18.4
				c0,0.8-0.7,1.5-1.5,1.5h-2.7c-0.4,0-0.9-0.2-1.1-0.5l-7.8-9.6c0,0,0,0-0.1-0.1c0,0,0,0-0.1-0.1c0,0-0.1,0-0.1-0.1
				c-0.1-0.1-0.1-0.1-0.2-0.1c-0.1,0-0.2,0-0.2-0.1c-0.1,0-0.2,0-0.2,0c-0.1,0-0.2,0-0.2,0c-0.1,0-0.2,0-0.2,0.1
				c-0.1,0-0.2,0.1-0.2,0.1c0,0-0.1,0-0.1,0.1c0,0,0,0.1-0.1,0.1c0,0,0,0-0.1,0.1l-9.3,10.3c-0.3,0.3-0.7,0.5-1.1,0.5h-1.4
				C40.6,99.9,39.9,99.3,39.9,98.4 M82.5,97.9l0-8.4h7.7l0.9,1.7c0,0,0,0,0,0l-4.6,7.5c-0.3,0.4-0.7,0.7-1.3,0.7h-1.3
				C83.1,99.3,82.5,98.7,82.5,97.9 M58.4,33.6c-1.6,0-2.9-1-3.4-2.5l-0.2-1.3c0.1-1.9,1.7-3.5,3.6-3.5c1.3,0,3.8,1.9,5.7,3.6
				C62.3,31.7,59.7,33.6,58.4,33.6 M48,24c0.8,0,1.5,0.5,1.9,1.2c-0.2,0-0.4-0.1-0.7-0.1c-0.2,0-0.5-0.1-0.7-0.2
				c-0.3-0.1-0.6-0.1-1-0.2c-0.3,0-0.5-0.1-0.8-0.1c0,0-0.1,0-0.1,0C46.9,24.2,47.5,24,48,24 M25.1,24c0.5,0,1,0.2,1.4,0.6
				c0,0-0.1,0-0.1,0c-0.2,0-0.5,0.1-0.7,0.1c-0.4,0.1-0.7,0.1-1.1,0.2c-0.2,0-0.5,0.1-0.7,0.1c-0.2,0-0.5,0.1-0.7,0.1
				C23.5,24.4,24.2,24,25.1,24 M104.6,58.3c0-6.9-5.6-12.5-12.5-12.5h-35l-1.5-10.4c0.8,0.4,1.8,0.7,2.8,0.7c3,0,7.5-4.3,8.4-5.2
				c0.2-0.2,0.4-0.6,0.4-0.9c0-0.3-0.1-0.6-0.4-0.9c-0.9-0.9-5.4-5.2-8.4-5.2c-2.1,0-3.9,1-5,2.6c-0.3-0.2-0.6-0.4-0.9-0.5
				c0-2.5-2-4.5-4.6-4.5c-1.8,0-3.4,1.1-4.1,2.8c-4.6-0.4-10.1-0.4-14.6,0c-0.7-1.6-2.3-2.7-4.1-2.7c-2.5,0-4.5,2-4.5,4.5
				c-0.2,0.1-0.5,0.2-0.7,0.4c-1.1-1.5-2.9-2.4-4.8-2.4c-3,0-7.5,4.3-8.4,5.2c-0.2,0.2-0.4,0.5-0.4,0.9c0,0.3,0.1,0.6,0.4,0.9
				C7.5,31.7,12,36,15,36c1,0,1.9-0.2,2.7-0.6L14,60.8c0,0,0,0.1,0,0.1c0,0,0,0.1,0,0.1c0,12.5,10.2,22.7,22.7,22.7
				c0.3,0,0.5,0,0.8,0v16c0,1.5,1.2,2.8,2.8,2.8H44c0.2,0,0.9-0.4,0.9-0.4l9.2-10.1l7.8,9.5c0.2,0.2,0.3,0.5,1,0.5h5.1
				c1.5,0,2.8-1.2,2.8-2.8v-9.6H80V99c0,1.5,1.2,2.8,2.8,2.8h4c0.2,0,0.3,0,0.4-0.1c0,0,0.1,0,0.1,0c0.1-0.1,0.2-0.1,0.3-0.2
				c0,0,0,0,0,0c0.1-0.1,0.1-0.1,0.2-0.2l4.7-7.6l4.2,7.6c0.1,0.1,0.1,0.2,0.2,0.3c0,0,0,0,0,0c0.1,0.1,0.2,0.2,0.3,0.2
				c0,0,0.1,0,0.1,0c0.1,0,0.3,0.1,0.4,0.1h4.1c1.5,0,2.8-1.2,2.8-2.8V58.3z"/>
			<path clip-path="url(#SVGID_4_)" fill="none" stroke="#422A19" stroke-width="0.8" stroke-miterlimit="10" d="M15,33.6
				c-1.3,0-3.8-1.9-5.7-3.6c1.9-1.7,4.5-3.6,5.7-3.6c1.5,0,3.7,1.4,3.5,3c0,0,0,0,0,0.1l-0.3,2.1C17.7,32.7,16.5,33.6,15,33.6z
				 M16.7,59.7c0,0,4.4-31,4.3-31.2c0.2-0.1,0.6-0.3,1.3-0.5c1.5-0.5,3.6-0.9,6.2-1.2c4.9-0.5,11.2-0.5,16.1,0
				c2.6,0.3,4.8,0.7,6.2,1.2c0.9,0.3,1.2,0.6,1.4,0.7l4.5,31.1H16.7z M36.7,81.2c-10.7,0-19.5-8.4-20.1-19h40.3
				C56.2,72.8,47.4,81.2,36.7,81.2z M39.9,98.4V83.4c11-1.6,19.4-11,19.4-22.4c0,0,0-0.1,0-0.1c0,0,0-0.1,0-0.1l-1.8-12.5h34.6
				c5.5,0,10,4.5,10,10v39.6c0,0.8-0.7,1.5-1.5,1.5h-1.3c-0.5,0-1-0.3-1.3-0.8l-6.1-11c0,0-0.1-0.1-0.1-0.1c0-0.1-0.1-0.1-0.2-0.2
				c-0.1,0-0.1-0.1-0.2-0.1c-0.1,0-0.1-0.1-0.2-0.1c-0.1,0-0.2,0-0.3,0c-0.1,0-0.1,0-0.2,0H72.1c-0.8,0-1.5-0.7-1.5-1.5v-6.1
				c0-0.7-0.5-1.2-1.2-1.2c-0.7,0-1.2,0.6-1.2,1.2v18.4c0,0.8-0.7,1.5-1.5,1.5h-2.7c-0.4,0-0.9-0.2-1.1-0.5l-7.8-9.6
				c0,0,0,0-0.1-0.1c0,0,0,0-0.1-0.1c0,0-0.1,0-0.1-0.1c-0.1-0.1-0.1-0.1-0.2-0.1c-0.1,0-0.2,0-0.2-0.1c-0.1,0-0.2,0-0.2,0
				c-0.1,0-0.2,0-0.2,0c-0.1,0-0.2,0-0.2,0.1c-0.1,0-0.2,0.1-0.2,0.1c0,0-0.1,0-0.1,0.1c0,0,0,0.1-0.1,0.1c0,0,0,0-0.1,0.1
				l-9.3,10.3c-0.3,0.3-0.7,0.5-1.1,0.5h-1.4C40.6,99.9,39.9,99.3,39.9,98.4z M82.5,97.9l0-8.4h7.7l0.9,1.7c0,0,0,0,0,0l-4.6,7.5
				c-0.3,0.4-0.7,0.7-1.3,0.7h-1.3C83.1,99.3,82.5,98.7,82.5,97.9z M58.4,33.6c-1.6,0-2.9-1-3.4-2.5l-0.2-1.3
				c0.1-1.9,1.7-3.5,3.6-3.5c1.3,0,3.8,1.9,5.7,3.6C62.3,31.7,59.7,33.6,58.4,33.6z M48,24c0.8,0,1.5,0.5,1.9,1.2
				c-0.2,0-0.4-0.1-0.7-0.1c-0.2,0-0.5-0.1-0.7-0.2c-0.3-0.1-0.6-0.1-1-0.2c-0.3,0-0.5-0.1-0.8-0.1c0,0-0.1,0-0.1,0
				C46.9,24.2,47.5,24,48,24z M25.1,24c0.5,0,1,0.2,1.4,0.6c0,0-0.1,0-0.1,0c-0.2,0-0.5,0.1-0.7,0.1c-0.4,0.1-0.7,0.1-1.1,0.2
				c-0.2,0-0.5,0.1-0.7,0.1c-0.2,0-0.5,0.1-0.7,0.1C23.5,24.4,24.2,24,25.1,24z M104.6,58.3c0-6.9-5.6-12.5-12.5-12.5h-35l-1.5-10.4
				c0.8,0.4,1.8,0.7,2.8,0.7c3,0,7.5-4.3,8.4-5.2c0.2-0.2,0.4-0.6,0.4-0.9c0-0.3-0.1-0.6-0.4-0.9c-0.9-0.9-5.4-5.2-8.4-5.2
				c-2.1,0-3.9,1-5,2.6c-0.3-0.2-0.6-0.4-0.9-0.5c0-2.5-2-4.5-4.6-4.5c-1.8,0-3.4,1.1-4.1,2.8c-4.6-0.4-10.1-0.4-14.6,0
				c-0.7-1.6-2.3-2.7-4.1-2.7c-2.5,0-4.5,2-4.5,4.5c-0.2,0.1-0.5,0.2-0.7,0.4c-1.1-1.5-2.9-2.4-4.8-2.4c-3,0-7.5,4.3-8.4,5.2
				c-0.2,0.2-0.4,0.5-0.4,0.9c0,0.3,0.1,0.6,0.4,0.9C7.5,31.7,12,36,15,36c1,0,1.9-0.2,2.7-0.6L14,60.8c0,0,0,0.1,0,0.1
				c0,0,0,0.1,0,0.1c0,12.5,10.2,22.7,22.7,22.7c0.3,0,0.5,0,0.8,0v16c0,1.5,1.2,2.8,2.8,2.8H44c0.2,0,0.9-0.4,0.9-0.4l9.2-10.1
				l7.8,9.5c0.2,0.2,0.3,0.5,1,0.5h5.1c1.5,0,2.8-1.2,2.8-2.8v-9.6H80V99c0,1.5,1.2,2.8,2.8,2.8h4c0.2,0,0.3,0,0.4-0.1
				c0,0,0.1,0,0.1,0c0.1-0.1,0.2-0.1,0.3-0.2c0,0,0,0,0,0c0.1-0.1,0.1-0.1,0.2-0.2l4.7-7.6l4.2,7.6c0.1,0.1,0.1,0.2,0.2,0.3
				c0,0,0,0,0,0c0.1,0.1,0.2,0.2,0.3,0.2c0,0,0.1,0,0.1,0c0.1,0,0.3,0.1,0.4,0.1h4.1c1.5,0,2.8-1.2,2.8-2.8V58.3z"/>
			<path clip-path="url(#SVGID_4_)" fill="#422A19" d="M28.5,47.3c0,0.9-0.8,1.7-1.7,1.7c-0.9,0-1.7-0.8-1.7-1.7
				c0-0.9,0.8-1.7,1.7-1.7c0.1,0,0.1,0,0.2,0c-0.4-0.2-0.8-0.3-1.3-0.3c-1.6,0-2.9,1.3-2.9,2.9c0,1.6,1.3,2.9,2.9,2.9
				c1.6,0,2.9-1.3,2.9-2.9C28.6,47.9,28.6,47.6,28.5,47.3"/>
			<path clip-path="url(#SVGID_4_)" fill="#422A19" d="M49,49c-0.9,0-1.7-0.8-1.7-1.7c0-0.9,0.8-1.7,1.7-1.7
				c-0.4-0.2-0.8-0.3-1.2-0.3c-1.6,0-2.9,1.3-2.9,2.9c0,1.6,1.3,2.9,2.9,2.9c1.6,0,2.9-1.3,2.9-2.9c0-0.2,0-0.4-0.1-0.6
				C50.5,48.4,49.8,49,49,49"/>
			<path clip-path="url(#SVGID_4_)" fill="#422A19" d="M18.5,68.9c0.4-0.9,1.2-1.9,2.4-2.1c0.2,0,1.1-0.1,1.7,0.4
				c0.3,0.3,0.5,0.6,0.4,0.7c-0.1,0.1-0.6-0.4-1.2-0.4c-0.7,0-1.4,0.7-1.6,1.6c-0.2,1.1,0.8,3.1,4.2,1.2c1.4-0.8,2.2-1.3,3.1-1.9
				c1.2-0.8,2.3-1.9,4.4-2c2.2,0,4.4,1.3,4.4,1.3s2.2-1.3,4.4-1.3c2,0,3.1,1.2,4.4,2c1,0.6,1.7,1.1,3.1,1.9c3.4,1.9,4.4-0.1,4.2-1.2
				c-0.1-0.9-0.9-1.6-1.6-1.6c-0.6,0-1.1,0.5-1.2,0.4c-0.1-0.1,0.1-0.5,0.4-0.7c0.6-0.5,1.5-0.4,1.7-0.4c1.1,0.2,2,1.2,2.4,2.1
				c0.9,2.1-0.5,4.2-0.6,4.3c-1.1,1.4-2.6,1.9-4.3,2.2c-5.5,1.1-10.1-1.7-10.7-2.1c-1-0.6-2.3-1.6-2.3-1.6s-1.3,1.1-2.3,1.6
				c-0.6,0.4-5.2,3.2-10.7,2.1c-1.6-0.3-3.2-0.9-4.3-2.2C19.1,73.1,17.7,71,18.5,68.9"/>
			<path clip-path="url(#SVGID_4_)" fill="none" stroke="#422A19" stroke-width="0.8" stroke-miterlimit="10" d="M18.5,68.9
				c0.4-0.9,1.2-1.9,2.4-2.1c0.2,0,1.1-0.1,1.7,0.4c0.3,0.3,0.5,0.6,0.4,0.7c-0.1,0.1-0.6-0.4-1.2-0.4c-0.7,0-1.4,0.7-1.6,1.6
				c-0.2,1.1,0.8,3.1,4.2,1.2c1.4-0.8,2.2-1.3,3.1-1.9c1.2-0.8,2.3-1.9,4.4-2c2.2,0,4.4,1.3,4.4,1.3s2.2-1.3,4.4-1.3
				c2,0,3.1,1.2,4.4,2c1,0.6,1.7,1.1,3.1,1.9c3.4,1.9,4.4-0.1,4.2-1.2c-0.1-0.9-0.9-1.6-1.6-1.6c-0.6,0-1.1,0.5-1.2,0.4
				c-0.1-0.1,0.1-0.5,0.4-0.7c0.6-0.5,1.5-0.4,1.7-0.4c1.1,0.2,2,1.2,2.4,2.1c0.9,2.1-0.5,4.2-0.6,4.3c-1.1,1.4-2.6,1.9-4.3,2.2
				c-5.5,1.1-10.1-1.7-10.7-2.1c-1-0.6-2.3-1.6-2.3-1.6s-1.3,1.1-2.3,1.6c-0.6,0.4-5.2,3.2-10.7,2.1c-1.6-0.3-3.2-0.9-4.3-2.2
				C19.1,73.1,17.7,71,18.5,68.9z"/>
		</g>
	</g>
	<g>
		<path fill="#B12024" d="M4.1,137l-2.9-12.1H5l1.3,7.8l1.5-7.8h3.2l1.5,7.8l1.3-7.8h3.7L14.6,137h-3.9l-1.4-7.3L8.1,137H4.1z"/>
		<path fill="#B12024" d="M18.5,137v-12.1h9.7v2.9h-5.8v1.6h4.9v2.8h-4.9v1.9h6v2.9H18.5z"/>
		<path fill="#B12024" d="M29.8,137v-12.1h3.9v8.9H39v3.2H29.8z"/>
		<path fill="#B12024" d="M40.3,137v-12.1h3.9v8.9h5.3v3.2H40.3z"/>
		<path fill="#B12024" d="M50.7,137v-12.1h4V137H50.7z"/>
		<path fill="#B12024" d="M56.7,137v-12.1h3.7l3.4,5.6c0.1,0.2,0.2,0.4,0.3,0.7c0.1,0.3,0.2,0.6,0.4,1.1c0-0.2-0.1-0.4-0.1-0.7
			c0-0.3,0-0.6,0-0.9v-5.7h3.7V137h-3.7l-3.4-5.6c-0.1-0.2-0.2-0.4-0.3-0.7c-0.1-0.3-0.2-0.6-0.4-1c0,0.2,0.1,0.4,0.1,0.7
			c0,0.2,0,0.6,0,1v5.7H56.7z"/>
		<path fill="#B12024" d="M79.1,137l-0.2-1c-0.4,0.5-1,0.8-1.6,1c-0.6,0.2-1.3,0.3-2.2,0.3c-1.7,0-3.1-0.6-4.1-1.7
			c-1-1.1-1.5-2.7-1.5-4.7c0-2,0.6-3.6,1.7-4.7c1.1-1.1,2.7-1.7,4.7-1.7c1.6,0,2.9,0.4,3.8,1.2c1,0.8,1.5,1.9,1.7,3.3h-3.7
			c-0.1-0.5-0.4-0.8-0.7-1.1c-0.3-0.3-0.7-0.4-1.2-0.4c-0.8,0-1.4,0.3-1.7,0.9c-0.4,0.6-0.6,1.5-0.6,2.7c0,1.1,0.2,1.9,0.6,2.5
			c0.4,0.5,1,0.8,1.8,0.8c0.6,0,1.1-0.1,1.5-0.4c0.4-0.3,0.6-0.6,0.7-1.1h-1.8v-2.6h5.3v6.6H79.1z"/>
		<path fill="#B12024" d="M86,137v-8.9h-3.5v-3.2h10.9v3.2h-3.5v8.9H86z"/>
		<path fill="#B12024" d="M93.8,131c0-2,0.6-3.5,1.7-4.7c1.1-1.1,2.7-1.7,4.6-1.7c1.9,0,3.5,0.6,4.6,1.7c1.1,1.1,1.7,2.7,1.7,4.7
			c0,2-0.6,3.5-1.7,4.7s-2.7,1.7-4.6,1.7c-1.9,0-3.5-0.6-4.6-1.7C94.3,134.5,93.8,132.9,93.8,131z M97.7,131c0,1.1,0.2,2,0.6,2.5
			c0.4,0.5,1,0.8,1.8,0.8c0.8,0,1.4-0.3,1.8-0.8s0.6-1.4,0.6-2.5c0-1.2-0.2-2-0.6-2.5s-1-0.8-1.8-0.8c-0.8,0-1.4,0.3-1.8,0.8
			C97.9,129,97.7,129.8,97.7,131z"/>
		<path fill="#B12024" d="M107.8,137v-12.1h3.7l3.4,5.6c0.1,0.2,0.2,0.4,0.3,0.7c0.1,0.3,0.2,0.6,0.4,1.1c0-0.2-0.1-0.4-0.1-0.7
			c0-0.3,0-0.6,0-0.9v-5.7h3.7V137h-3.7l-3.4-5.6c-0.1-0.2-0.2-0.4-0.3-0.7c-0.1-0.3-0.2-0.6-0.4-1c0,0.2,0.1,0.4,0.1,0.7
			c0,0.2,0,0.6,0,1v5.7H107.8z"/>
		<path fill="#422A19" d="M10.1,149.2h3.7c-0.1,1.6-0.7,2.8-1.7,3.7c-1,0.9-2.4,1.3-4.1,1.3c-1.9,0-3.5-0.6-4.6-1.7
			c-1.1-1.1-1.7-2.7-1.7-4.7c0-2,0.6-3.5,1.7-4.7c1.1-1.1,2.6-1.7,4.5-1.7c1.8,0,3.1,0.4,4.1,1.3c1,0.8,1.6,2.1,1.7,3.6H10
			c-0.1-0.6-0.3-1.1-0.6-1.4c-0.3-0.3-0.8-0.5-1.5-0.5c-0.8,0-1.3,0.3-1.7,0.8c-0.4,0.6-0.6,1.4-0.6,2.5c0,1.1,0.2,1.9,0.6,2.5
			c0.4,0.6,1,0.8,1.8,0.8c0.6,0,1.1-0.2,1.4-0.5C9.8,150.3,10,149.8,10.1,149.2z"/>
		<path fill="#422A19" d="M16.1,153.9v-12.1h3.9v4.1h3.6v-4.1h3.9v12.1h-3.9v-4.7h-3.6v4.7H16.1z"/>
		<path fill="#422A19" d="M29.9,147.8c0-2,0.6-3.5,1.7-4.7c1.1-1.1,2.7-1.7,4.6-1.7c1.9,0,3.5,0.6,4.6,1.7c1.1,1.1,1.7,2.7,1.7,4.7
			c0,2-0.6,3.5-1.7,4.7c-1.1,1.1-2.7,1.7-4.6,1.7c-1.9,0-3.5-0.6-4.6-1.7S29.9,149.8,29.9,147.8z M33.8,147.8c0,1.1,0.2,2,0.6,2.5
			c0.4,0.5,1,0.8,1.8,0.8c0.8,0,1.4-0.3,1.8-0.8c0.4-0.5,0.6-1.4,0.6-2.5c0-1.2-0.2-2-0.6-2.5c-0.4-0.5-1-0.8-1.8-0.8
			c-0.8,0-1.4,0.3-1.8,0.8C34,145.8,33.8,146.7,33.8,147.8z"/>
		<path fill="#422A19" d="M52.8,149.2h3.7c-0.1,1.6-0.7,2.8-1.7,3.7c-1,0.9-2.4,1.3-4.1,1.3c-1.9,0-3.5-0.6-4.6-1.7
			c-1.1-1.1-1.7-2.7-1.7-4.7c0-2,0.6-3.5,1.7-4.7c1.1-1.1,2.6-1.7,4.5-1.7c1.8,0,3.1,0.4,4.1,1.3c1,0.8,1.6,2.1,1.7,3.6h-3.7
			c-0.1-0.6-0.3-1.1-0.6-1.4c-0.3-0.3-0.8-0.5-1.5-0.5c-0.8,0-1.3,0.3-1.7,0.8s-0.6,1.4-0.6,2.5c0,1.1,0.2,1.9,0.6,2.5
			c0.4,0.6,1,0.8,1.8,0.8c0.6,0,1.1-0.2,1.4-0.5C52.5,150.3,52.7,149.8,52.8,149.2z"/>
		<path fill="#422A19" d="M58.2,147.8c0-2,0.6-3.5,1.7-4.7c1.1-1.1,2.7-1.7,4.6-1.7c1.9,0,3.5,0.6,4.6,1.7c1.1,1.1,1.7,2.7,1.7,4.7
			c0,2-0.6,3.5-1.7,4.7c-1.1,1.1-2.7,1.7-4.6,1.7c-1.9,0-3.5-0.6-4.6-1.7C58.8,151.3,58.2,149.8,58.2,147.8z M62.1,147.8
			c0,1.1,0.2,2,0.6,2.5s1,0.8,1.8,0.8c0.8,0,1.4-0.3,1.8-0.8c0.4-0.5,0.6-1.4,0.6-2.5c0-1.2-0.2-2-0.6-2.5c-0.4-0.5-1-0.8-1.8-0.8
			c-0.8,0-1.4,0.3-1.8,0.8C62.3,145.8,62.1,146.7,62.1,147.8z"/>
		<path fill="#422A19" d="M73.2,153.9v-12.1h3.9v8.9h5.3v3.2H73.2z"/>
		<path fill="#422A19" d="M83.5,153.9l4.3-12.1h3.9l4.3,12.1h-3.9l-0.5-1.6h-3.9l-0.5,1.6H83.5z M88.5,149.7h2.4l-1.2-4.2
			L88.5,149.7z"/>
		<path fill="#422A19" d="M100.2,153.9v-8.9h-3.5v-3.2h10.9v3.2h-3.5v8.9H100.2z"/>
		<path fill="#422A19" d="M109.5,153.9v-12.1h9.7v2.9h-5.8v1.6h4.9v2.8h-4.9v1.9h6v2.9H109.5z"/>
		<path fill="#B12024" d="M5.7,170.7H2.2v-12.1H7l1.7,6c0,0.1,0.1,0.3,0.1,0.6c0.1,0.3,0.2,0.7,0.3,1.2c0.1-0.4,0.1-0.8,0.2-1.1
			c0.1-0.3,0.1-0.5,0.2-0.7l1.7-6.1h4.7v12.1h-3.5l0-6c0-0.4,0-0.7,0-1.1c0-0.3,0-0.7,0-1.1c-0.1,0.6-0.3,1.3-0.5,2l0,0.1l-1.5,5.9
			H7.7l-1.5-5.8C6.1,164.6,6,164.3,6,164c-0.1-0.3-0.2-0.8-0.3-1.4c0,0.5,0,1,0,1.3c0,0.4,0,0.7,0,0.9V170.7z"/>
		<path fill="#B12024" d="M24.1,170.7v-12.1h4v12.1H24.1z"/>
		<path fill="#B12024" d="M36.4,170.7v-12.1h3.9v8.9h5.3v3.2H36.4z"/>
		<path fill="#B12024" d="M53,170.7v-12.1h3.9v4l3.5-4h4.5l-4.3,4.5l4.9,7.6h-4.6l-3-4.9l-1,1v3.9H53z"/>
		<path fill="#B12024" d="M72.1,170.7v-12.1h9.7v2.9h-5.8v1.6h4.9v2.8h-4.9v1.9h6v2.9H72.1z"/>
		<path fill="#B12024" d="M89.7,170.7v-12.1h5.8c1.8,0,3.1,0.3,3.9,0.8c0.8,0.5,1.2,1.4,1.2,2.7c0,0.7-0.2,1.4-0.5,1.8
			c-0.3,0.5-0.8,0.9-1.5,1.2c0.7,0.1,1.2,0.4,1.5,0.8c0.3,0.4,0.5,1,0.5,1.8l0.1,1.7c0,0,0,0,0,0c0,0.5,0.1,0.7,0.3,0.8v0.5H97
			c-0.1-0.3-0.1-0.5-0.2-0.8c0-0.2-0.1-0.4-0.1-0.5v-1.2c0-0.6-0.1-1.1-0.4-1.3c-0.2-0.3-0.7-0.4-1.3-0.4h-1.7v4.2H89.7z
			 M93.5,163.8h1.8c0.6,0,1-0.1,1.3-0.3s0.4-0.5,0.4-0.9c0-0.4-0.1-0.7-0.4-0.9c-0.2-0.2-0.7-0.3-1.4-0.3h-1.7V163.8z"/>
		<path fill="#B12024" d="M107.9,166.9h3.8c0.1,0.4,0.3,0.8,0.6,0.9c0.3,0.2,0.7,0.3,1.2,0.3c0.5,0,0.8-0.1,1.1-0.2
			c0.3-0.2,0.4-0.4,0.4-0.6c0-0.4-0.5-0.8-1.6-1.1c-0.2-0.1-0.4-0.1-0.5-0.1c-0.9-0.2-1.6-0.4-2.1-0.6c-0.5-0.2-0.9-0.4-1.2-0.5
			c-0.5-0.3-0.8-0.7-1-1.2c-0.2-0.5-0.3-1-0.3-1.6c0-1.2,0.5-2.1,1.4-2.8c0.9-0.7,2.1-1,3.7-1c1.6,0,2.8,0.3,3.7,1
			c0.9,0.7,1.4,1.6,1.5,2.8h-3.7c-0.1-0.4-0.2-0.6-0.5-0.8c-0.3-0.2-0.6-0.3-1.1-0.3c-0.4,0-0.7,0.1-0.9,0.2
			c-0.2,0.1-0.3,0.3-0.3,0.6c0,0.4,0.5,0.7,1.6,1c0.1,0,0.2,0,0.2,0.1c0.2,0,0.4,0.1,0.7,0.2c1.4,0.4,2.3,0.7,2.8,1
			c0.5,0.4,0.9,0.8,1.2,1.2c0.2,0.5,0.4,1,0.4,1.6c0,1.3-0.5,2.4-1.4,3.1c-0.9,0.7-2.3,1.1-4,1.1c-1.6,0-2.9-0.4-3.8-1.1
			C108.5,169.2,108,168.2,107.9,166.9z"/>
	</g>
</g>
</svg>
