<?xml version="1.0" encoding="utf-8"?>
<!-- Generator: Adobe Illustrator 18.1.1, SVG Export Plug-In . SVG Version: 6.00 Build 0)  -->
<svg version="1.1" id="Layer_1" xmlns="http://www.w3.org/2000/svg" xmlns:xlink="http://www.w3.org/1999/xlink" x="0px" y="0px"
	 viewBox="0 0 200 200" enable-background="new 0 0 200 200" xml:space="preserve">
<radialGradient id="SVGID_1_" cx="7.719" cy="46.2918" r="188.4077" gradientUnits="userSpaceOnUse">
	<stop  offset="5.376344e-03" style="stop-color:#453C69"/>
	<stop  offset="9.053030e-02" style="stop-color:#393862"/>
	<stop  offset="0.2441" style="stop-color:#192F4F"/>
	<stop  offset="0.328" style="stop-color:#052943"/>
	<stop  offset="0.7054" style="stop-color:#0D1335"/>
	<stop  offset="0.7892" style="stop-color:#0C1231"/>
	<stop  offset="0.8677" style="stop-color:#090E26"/>
	<stop  offset="0.9439" style="stop-color:#050713"/>
	<stop  offset="1" style="stop-color:#000000"/>
</radialGradient>
<circle fill="url(#SVGID_1_)" cx="100" cy="100" r="100"/>
<g>
	<ellipse fill="#FFFFFF" cx="2.2" cy="76.5" rx="1.6" ry="1.3"/>
	<ellipse fill="#FFFFFF" cx="34.7" cy="96.6" rx="1.2" ry="1"/>
	<ellipse fill="#FFFFFF" cx="47.6" cy="78.3" rx="1" ry="0.8"/>
	<ellipse fill="#FFFFFF" cx="99.9" cy="92.1" rx="1" ry="0.8"/>
	<ellipse fill="#FFFFFF" cx="70.8" cy="121.9" rx="0.8" ry="0.7"/>
	<ellipse fill="#FFFFFF" cx="36.5" cy="142.6" rx="1.1" ry="0.9"/>
	<ellipse fill="#FFFFFF" cx="-1.8" cy="158.9" rx="1.1" ry="0.9"/>
	<path fill="#FFFFFF" d="M-13.9,127.3c0,0.4-0.4,0.7-0.8,0.7c-0.4,0-0.8-0.3-0.8-0.7c0-0.4,0.4-0.7,0.8-0.7
		C-14.2,126.7-13.9,127-13.9,127.3z"/>
	<ellipse fill="#FFFFFF" cx="-46.9" cy="111.1" rx="1.3" ry="1.1"/>
	<ellipse fill="#FFFFFF" cx="112.7" cy="145.2" rx="1.7" ry="1.4"/>
	<ellipse fill="#FFFFFF" cx="135.8" cy="107.9" rx="1.4" ry="1.2"/>
	<ellipse fill="#FFFFFF" cx="137" cy="73.1" rx="1" ry="0.9"/>
	<ellipse fill="#FFFFFF" cx="229.3" cy="79.4" rx="1.2" ry="1"/>
	<ellipse fill="#FFFFFF" cx="191.1" cy="83.5" rx="0.8" ry="0.7"/>
	<ellipse fill="#FFFFFF" cx="166.6" cy="213.1" rx="2.4" ry="2"/>
	<ellipse fill="#FFFFFF" cx="224.8" cy="172.7" rx="1.5" ry="1.3"/>
	<ellipse fill="#FFFFFF" cx="60.5" cy="178" rx="1.7" ry="1.5"/>
	<ellipse fill="#FFFFFF" cx="92.6" cy="226.8" rx="2.2" ry="1.8"/>
	<ellipse fill="#FFFFFF" cx="164.2" cy="121.6" rx="1.7" ry="1.5"/>
</g>
<g>
	<path fill="#FFFFFF" d="M118.3,0c0,0.6,0.7,1,1.5,1c0.8,0,1.5-0.5,1.5-1c0-0.6-0.7-1-1.5-1C119-1.1,118.3-0.6,118.3,0z"/>
	<ellipse fill="#FFFFFF" cx="89.3" cy="15.7" rx="1.1" ry="0.8"/>
	<path fill="#FFFFFF" d="M76.2,1.4c0,0.4,0.4,0.7,1,0.7c0.5,0,1-0.3,0.9-0.7c0-0.4-0.4-0.7-0.9-0.7C76.7,0.8,76.2,1.1,76.2,1.4z"/>
	<ellipse fill="#FFFFFF" cx="28.2" cy="12.2" rx="1" ry="0.7"/>
	<ellipse fill="#FFFFFF" cx="55.4" cy="35.5" rx="0.7" ry="0.5"/>
	<ellipse fill="#FFFFFF" cx="87.6" cy="51.7" rx="1" ry="0.7"/>
	<path fill="#FFFFFF" d="M122.6,64.5c0,0.4,0.5,0.7,1,0.7c0.6,0,1-0.3,1-0.7c0-0.4-0.5-0.7-1-0.7C123,63.7,122.6,64.1,122.6,64.5z"
		/>
	<path fill="#FFFFFF" d="M134.9,39.7c0,0.3,0.3,0.5,0.7,0.5c0.4,0,0.7-0.2,0.7-0.5c0-0.3-0.3-0.5-0.7-0.5
		C135.2,39.2,134.9,39.5,134.9,39.7z"/>
	<path fill="#FFFFFF" d="M164.6,27c0,0.5,0.5,0.9,1.2,0.9c0.7,0,1.2-0.4,1.2-0.9c0-0.5-0.5-0.9-1.2-0.9
		C165.2,26.2,164.6,26.6,164.6,27z"/>
	<path fill="#FFFFFF" d="M14.6,53.8c0,0.6,0.7,1.1,1.6,1.1c0.9,0,1.6-0.5,1.6-1.1c0-0.6-0.7-1.1-1.6-1.1
		C15.3,52.7,14.6,53.2,14.6,53.8z"/>
	<path fill="#FFFFFF" d="M-6.9,24.6c0,0.5,0.6,0.9,1.3,0.9c0.7,0,1.3-0.4,1.3-0.9c0-0.5-0.6-0.9-1.3-0.9
		C-6.3,23.7-6.9,24.1-6.9,24.6z"/>
	<ellipse fill="#FFFFFF" cx="-6.7" cy="-2.6" rx="0.9" ry="0.7"/>
	<path fill="#FFFFFF" d="M-94.4,2.3c0,0.4,0.5,0.8,1.2,0.8c0.6,0,1.2-0.4,1.2-0.8c0-0.4-0.5-0.8-1.2-0.8
		C-93.9,1.5-94.4,1.9-94.4,2.3z"/>
	<ellipse fill="#FFFFFF" cx="-57.4" cy="5.5" rx="0.7" ry="0.5"/>
	<path fill="#FFFFFF" d="M-36.7,107c0,0.9,1,1.6,2.2,1.6c1.2,0,2.2-0.7,2.2-1.6c0-0.9-1-1.6-2.2-1.6
		C-35.7,105.5-36.7,106.2-36.7,107z"/>
	<ellipse fill="#FFFFFF" cx="-89" cy="75.4" rx="1.4" ry="1"/>
	<path fill="#FFFFFF" d="M63.5,79.5c0,0.6,0.7,1.1,1.6,1.1c0.9,0,1.6-0.5,1.6-1.1c0-0.6-0.7-1.1-1.6-1.1
		C64.2,78.3,63.5,78.8,63.5,79.5z"/>
	<ellipse fill="#FFFFFF" cx="35" cy="117.7" rx="2" ry="1.4"/>
	<ellipse fill="#FFFFFF" cx="-32.2" cy="35.3" rx="1.6" ry="1.1"/>
</g>
<g>
	<circle fill="#FFFFFF" cx="111.2" cy="87.6" r="2"/>
	<path fill="#FFFFFF" d="M184.7,91.8h11.2v3.8h-11.2c-1,0-1.7,0.2-2,0.5c-0.4,0.5-0.5,1-0.5,1.5c0,0.8,0.4,1.4,1.2,1.7l0.7,0.1h5.2
		c3.1,0,5.2,1.2,6.1,3.5c0.3,0.7,0.4,1.5,0.4,2.2c0,2.3-1.1,4-3.2,5.1c-0.9,0.4-1.7,0.6-2.4,0.6h-11.8v-3.8H190
		c0.9,0,1.5-0.4,1.8-1.1l0.1-0.8c0-1.3-0.8-1.9-2.4-1.9H184c-1.5,0-2.8-0.6-4.1-1.7c-1-1.1-1.6-2.4-1.6-4c0-1.4,0.5-2.8,1.5-4
		C180.9,92.4,182.5,91.8,184.7,91.8z"/>
	<path fill="#FFFFFF" d="M84.8,91.6c2.5,0,4.8,0.9,6.8,2.8c1.9,2,2.8,4.3,2.8,6.8c0,2.7-1,5.1-3.1,7.1c-1.9,1.7-4.1,2.5-6.5,2.5
		h-0.1c-2.9,0-5.3-1.1-7.4-3.4c-1.5-1.9-2.3-4-2.3-6.2c0-2,0.6-3.8,1.7-5.5C78.8,93,81.5,91.6,84.8,91.6z M78.9,101v0.2l0,0l0,0v0.3
		c0,1.6,0.7,3,2.2,4.4c1.1,0.8,2.3,1.2,3.6,1.2c1.9,0,3.5-0.8,4.7-2.4c0.7-1.1,1.1-2.2,1.1-3.4c0-2-0.9-3.7-2.8-5
		c-1-0.6-2.1-0.8-3.1-0.8c-1.9,0-3.5,0.9-4.8,2.7C79.2,99.2,78.9,100.1,78.9,101z"/>
	<path fill="#FFFFFF" d="M96.1,91.6h3.9v2.2h0c2.1-1.5,4.6-2.2,7.7-2.2v3.9c-3.7,0-6.2,1.3-7.3,3.9c-0.3,0.8-0.5,1.5-0.5,2.1v9.5
		h-3.9V91.6z"/>
	<path fill="#FFFFFF" d="M114.8,91.6h19.4v2.7l-12.8,12.8h12.8v3.9h-19.4v-2.7l12.7-12.8h-12.7V91.6z"/>
	<path fill="#FFFFFF" d="M144.8,91.6c2.5,0,4.8,0.9,6.8,2.8c1.9,2,2.8,4.3,2.8,6.8c0,2.7-1,5.1-3.1,7.1c-1.9,1.7-4.1,2.5-6.5,2.5
		h-0.1c-2.9,0-5.3-1.1-7.4-3.4c-1.5-1.9-2.3-4-2.3-6.2c0-2,0.6-3.8,1.7-5.5C138.8,93,141.5,91.6,144.8,91.6z M138.9,101v0.2l0,0l0,0
		v0.3c0,1.6,0.7,3,2.2,4.4c1.1,0.8,2.3,1.2,3.6,1.2c1.9,0,3.5-0.8,4.7-2.4c0.7-1.1,1.1-2.2,1.1-3.4c0-2-0.9-3.7-2.8-5
		c-1-0.6-2.1-0.8-3.1-0.8c-1.9,0-3.5,0.9-4.8,2.7C139.2,99.2,138.9,100.1,138.9,101z"/>
	<path fill="#FFFFFF" d="M156.1,91.6h3.9v1.7h0c1.6-1.1,3.5-1.7,5.8-1.7c4.3,0,7.3,1.9,9,5.8c0.5,1.3,0.7,2.5,0.7,3.7v9.8h-3.9v-9.7
		c0-1.6-0.5-2.9-1.5-4.1c-1-1.1-2.5-1.7-4.4-1.7c-2.6,0-4.4,1.1-5.3,3.4c-0.3,0.8-0.5,1.6-0.5,2.5v9.6h-3.9V91.6z"/>
	<rect x="109.2" y="91.6" fill="#FFFFFF" width="3.9" height="19.4"/>
	<g>
		<path fill="none" stroke="#008DA2" stroke-miterlimit="10" d="M34.1,91.6c2.5,0,4.8,0.9,6.8,2.8c1.9,2,2.8,4.3,2.8,6.8
			c0,2.7-1,5.1-3.1,7.1c-1.9,1.7-4.1,2.5-6.5,2.5H34c-2.9,0-5.3-1.1-7.4-3.4c-1.5-1.9-2.3-4-2.3-6.2c0-2,0.6-3.8,1.7-5.5
			C28.1,93,30.8,91.6,34.1,91.6z"/>
		<path fill="#0EFBE4" d="M27.4,101v0.3l-0.1,0.1l0.1,0v0.3c0,1.8,0.9,3.5,2.6,5c1.3,0.9,2.7,1.4,4.1,1.4c2.2,0,4-0.9,5.5-2.8
			c0.8-1.3,1.3-2.5,1.3-3.9c0-2.3-1.1-4.2-3.2-5.7c-1.2-0.6-2.4-1-3.6-1c-2.2,0-4.1,1-5.6,3.1C27.7,98.9,27.4,100,27.4,101z"/>
		<circle fill="#0EFBE4" cx="28.2" cy="93.9" r="1.6"/>
	</g>
	<path fill="#FFFFFF" d="M54,82h3.9v11.6h0c1.7-1.3,3.7-1.9,5.9-1.9c2.9,0,5.5,1.2,7.6,3.7c1.3,1.9,2,3.8,2,5.8v9.9h-3.9v-9.7
		c0-2-0.9-3.6-2.7-4.9c-0.9-0.6-2-0.9-3.1-0.9c-1.8,0-3.4,0.8-4.6,2.5c-0.7,1-1.1,2.2-1.1,3.7v9.4H54V82z"/>
	<path fill="#FFFFFF" d="M10.7,91.6h11.2v3.9H10.7c-1,0-1.7,0.2-2,0.5c-0.4,0.5-0.5,1-0.5,1.5c0,0.9,0.4,1.4,1.2,1.7l0.7,0.1h5.2
		c3.1,0,5.2,1.2,6.1,3.6c0.3,0.8,0.4,1.5,0.4,2.3c0,2.4-1.1,4.1-3.2,5.2c-0.9,0.4-1.7,0.6-2.4,0.6H4.5v-3.9H16
		c0.9,0,1.5-0.4,1.8-1.1l0.1-0.8c0-1.3-0.8-2-2.4-2H10c-1.5,0-2.8-0.6-4.1-1.7c-1-1.1-1.6-2.5-1.6-4.1c0-1.5,0.5-2.8,1.5-4.1
		C6.9,92.2,8.5,91.6,10.7,91.6z"/>
	<path fill="#FFFFFF" d="M46.5,82h3.9V111h-3.9V82z"/>
</g>
<g>
	<ellipse fill="#FFFFFF" cx="255.9" cy="182.4" rx="1.3" ry="0.9"/>
	<ellipse fill="#FFFFFF" cx="229.7" cy="168.5" rx="0.9" ry="0.7"/>
	<ellipse fill="#FFFFFF" cx="219.4" cy="181.2" rx="0.8" ry="0.6"/>
	<path fill="#FFFFFF" d="M176.6,171.7c0-0.3,0.4-0.6,0.8-0.6c0.5,0,0.8,0.3,0.8,0.6c0,0.3-0.4,0.6-0.8,0.6
		C176.9,172.3,176.6,172,176.6,171.7z"/>
	<path fill="#FFFFFF" d="M200.1,151c0-0.3,0.3-0.5,0.6-0.5c0.4,0,0.6,0.2,0.6,0.5c0,0.3-0.3,0.5-0.6,0.5
		C200.3,151.5,200.1,151.3,200.1,151z"/>
	<ellipse fill="#FFFFFF" cx="228.3" cy="136.6" rx="0.9" ry="0.6"/>
	<path fill="#FFFFFF" d="M258.2,125.3c0-0.3,0.4-0.6,0.9-0.6c0.5,0,0.9,0.3,0.9,0.6c0,0.4-0.4,0.6-0.9,0.6
		C258.6,125.9,258.2,125.6,258.2,125.3z"/>
	<path fill="#FFFFFF" d="M268.8,147.2c0-0.3,0.3-0.5,0.6-0.5c0.4,0,0.6,0.2,0.6,0.5c0,0.3-0.3,0.5-0.6,0.5
		C269.1,147.6,268.8,147.4,268.8,147.2z"/>
	<ellipse fill="#FFFFFF" cx="295.3" cy="158.4" rx="1" ry="0.8"/>
	<ellipse fill="#FFFFFF" cx="167.1" cy="134.9" rx="1.3" ry="1"/>
	<ellipse fill="#FFFFFF" cx="148.5" cy="160.7" rx="1.1" ry="0.8"/>
	<path fill="#FFFFFF" d="M146.7,184.8c0-0.3,0.4-0.6,0.8-0.6c0.5,0,0.8,0.3,0.8,0.6c0,0.3-0.4,0.6-0.8,0.6
		C147,185.4,146.7,185.2,146.7,184.8z"/>
	<ellipse fill="#FFFFFF" cx="73.3" cy="180.5" rx="1" ry="0.7"/>
	<ellipse fill="#FFFFFF" cx="104" cy="177.7" rx="0.6" ry="0.5"/>
	<ellipse fill="#FFFFFF" cx="123.6" cy="87.7" rx="1.9" ry="1.4"/>
	<ellipse fill="#FFFFFF" cx="76.9" cy="115.8" rx="1.2" ry="0.9"/>
	<path fill="#FFFFFF" d="M207.6,112.1c0-0.6,0.6-1,1.4-1c0.8,0,1.4,0.5,1.4,1c0,0.6-0.6,1-1.4,1
		C208.2,113.1,207.6,112.6,207.6,112.1z"/>
	<ellipse fill="#FFFFFF" cx="183.1" cy="78.2" rx="1.7" ry="1.3"/>
	<ellipse fill="#FFFFFF" cx="125.6" cy="151.3" rx="1.4" ry="1"/>
</g>
</svg>
