<?xml version="1.0" encoding="utf-8"?>
<!-- Generator: Adobe Illustrator 19.1.1, SVG Export Plug-In . SVG Version: 6.00 Build 0)  -->
<svg version="1.1" id="Layer_1" xmlns="http://www.w3.org/2000/svg" xmlns:xlink="http://www.w3.org/1999/xlink" x="0px" y="0px"
	 viewBox="-284 375.5 42.8 42.5" style="enable-background:new -284 375.5 42.8 42.5;" xml:space="preserve">
<style type="text/css">
	.st0{fill:#F16322;}
</style>
<path class="st0" d="M-242.6,382.4v-5.8h-25.7c-7.9,0-14.3,6.4-14.3,14.3l0,0c0,7.9,6.4,14.3,14.3,14.3h11.4c1.6,0,2.9-1.3,2.9-2.9
	l0,0c0-1.6-1.3-2.9-2.9-2.9h-11.5c-4.7,0.1-8.6-3.7-8.6-8.5l0,0c0-4.7,3.8-8.6,8.6-8.6h25.8V382.4z"/>
<path class="st0" d="M-282.6,410.9v5.8h25.6c7.9,0,14.3-6.4,14.3-14.3l0,0c0-7.9-6.4-14.3-14.3-14.3h-11.3c-1.6,0-2.9,1.3-2.9,2.9
	l0,0c0,1.6,1.3,2.9,2.9,2.9h11.5c4.7,0,8.6,3.8,8.6,8.6l0,0c0,4.7-3.8,8.6-8.6,8.6h-25.8V410.9z"/>
</svg>
