<?xml version="1.0" encoding="utf-8"?>
<!-- Generator: Adobe Illustrator 18.1.1, SVG Export Plug-In . SVG Version: 6.00 Build 0)  -->
<svg version="1.1" id="Layer_1" xmlns="http://www.w3.org/2000/svg" xmlns:xlink="http://www.w3.org/1999/xlink" x="0px" y="0px"
	 viewBox="0 0 42.8 42.5" enable-background="new 0 0 42.8 42.5" xml:space="preserve">
<path fill="#4FBA6F" d="M41.4,6.9V1.1H15.7C7.8,1.1,1.4,7.5,1.4,15.4v0c0,7.9,6.4,14.3,14.3,14.3h11.4c1.6,0,2.9-1.3,2.9-2.9v0
	c0-1.6-1.3-2.9-2.9-2.9H15.6C10.9,24,7,20.2,7,15.4v0c0-4.7,3.8-8.6,8.6-8.6H41.4z"/>
<path fill="#4FBA6F" d="M1.4,35.4v5.8H27c7.9,0,14.3-6.4,14.3-14.3v0c0-7.9-6.4-14.3-14.3-14.3H15.7c-1.6,0-2.9,1.3-2.9,2.9v0
	c0,1.6,1.3,2.9,2.9,2.9h11.5c4.7,0,8.6,3.8,8.6,8.6v0c0,4.7-3.8,8.6-8.6,8.6H1.4z"/>
</svg>
