<?xml version="1.0" encoding="utf-8"?>
<!-- Generator: Adobe Illustrator 18.1.1, SVG Export Plug-In . SVG Version: 6.00 Build 0)  -->
<svg version="1.1" id="Layer_1" xmlns="http://www.w3.org/2000/svg" xmlns:xlink="http://www.w3.org/1999/xlink" x="0px" y="0px"
	 viewBox="0 99.7 122 40.4" enable-background="new 0 99.7 122 40.4" xml:space="preserve">
<g>
	<g>
		<g>
			<defs>
				<rect id="SVGID_1_" x="4.7" y="99.7" width="153.1" height="53.3"/>
			</defs>
			<clipPath id="SVGID_2_">
				<use xlink:href="#SVGID_1_"  overflow="visible"/>
			</clipPath>
			<path clip-path="url(#SVGID_2_)" fill="#4EBA6F" d="M11.7,121.4c0,0.1,0,0.2-0.1,0.3l-1,1c0,0-0.1,0.1-0.2,0.1c0,0-0.1,0-0.2,0
				l0,0c0,0,0,0-0.1,0c-0.1,0-0.2,0-0.5,0c-0.2,0-0.5-0.1-0.8-0.2c-0.3-0.1-0.7-0.3-1-0.6c-0.4-0.2-0.8-0.6-1.2-1
				c-0.3-0.3-0.6-0.7-0.9-1c-0.2-0.3-0.4-0.6-0.6-0.9c-0.1-0.3-0.2-0.5-0.3-0.7c0-0.2-0.1-0.4-0.1-0.6c0-0.1,0-0.3,0-0.4
				s0-0.1,0-0.1s0-0.1,0-0.2s0.1-0.1,0.1-0.2l1-1c0,0,0.1-0.1,0.2-0.1c0,0,0.1,0,0.2,0l0.1,0.1l0.8,1.5c0,0.1,0,0.1,0,0.2
				s0,0.2-0.1,0.2l-0.4,0.4l0,0l0,0c0,0.1,0,0.2,0.1,0.3c0,0.1,0.1,0.3,0.3,0.4c0.1,0.2,0.3,0.4,0.5,0.6s0.4,0.4,0.6,0.5
				c0.2,0.1,0.3,0.2,0.4,0.3c0.1,0,0.2,0.1,0.3,0.1H9l0,0l0,0l0.4-0.4c0.1-0.1,0.2-0.1,0.3-0.1c0.1,0,0.1,0,0.2,0l0,0l1.4,0.9
				C11.6,121.2,11.6,121.3,11.7,121.4"/>
		</g>
	</g>
	<g>
		<g>
			<defs>
				<rect id="SVGID_3_" x="4.7" y="99.7" width="153.1" height="53.3"/>
			</defs>
			<clipPath id="SVGID_4_">
				<use xlink:href="#SVGID_3_"  overflow="visible"/>
			</clipPath>
			<path clip-path="url(#SVGID_4_)" fill="#4EBA6F" d="M7.2,105.6c0,0.6,0.4,1,1,1s1-0.4,1-1c0-0.6-0.4-1-1-1
				C7.6,104.6,7.2,105,7.2,105.6 M8.2,107.2c-0.9,0-1.6-0.7-1.6-1.6c0-0.9,0.7-1.6,1.6-1.6s1.6,0.7,1.6,1.6
				C9.8,106.5,9,107.2,8.2,107.2 M8.2,103c-1.4,0-2.6,1.1-2.6,2.6c0,2.6,2.6,5.6,2.6,5.6s2.6-3.1,2.6-5.6
				C10.7,104.2,9.6,103,8.2,103"/>
		</g>
	</g>
	<g>
		<g>
			<defs>
				<rect id="SVGID_5_" x="4.7" y="99.7" width="153.1" height="53.3"/>
			</defs>
			<clipPath id="SVGID_6_">
				<use xlink:href="#SVGID_5_"  overflow="visible"/>
			</clipPath>
			<path clip-path="url(#SVGID_6_)" fill="#4EBA6F" d="M8.6,132.3c0,0.1-0.1,0.2-0.2,0.3c0,0.1-0.1,0.2-0.2,0.2S8.1,132.9,8,133
				c-0.1,0-0.1,0-0.2,0c-0.2,0-0.3,0-0.3-0.1c0-0.1-0.1-0.2-0.1-0.4c0-0.1,0-0.3,0.1-0.5c0-0.2,0.1-0.3,0.2-0.5
				c0.1-0.1,0.2-0.2,0.3-0.3c0.1-0.1,0.3-0.1,0.4-0.1c0.1,0,0.2,0,0.3,0c0,0,0.1,0.1,0.2,0.1L8.6,132.3z M11.4,130.3
				c-0.2-0.4-0.4-0.7-0.7-0.9c-0.3-0.2-0.6-0.4-1-0.6c-0.4-0.1-0.9-0.2-1.3-0.2c-0.5,0-0.9,0.1-1.4,0.2c-0.4,0.2-0.8,0.4-1.1,0.7
				c-0.3,0.3-0.6,0.7-0.8,1.1c-0.2,0.4-0.3,0.9-0.3,1.5s0.1,1,0.2,1.4c0.2,0.4,0.4,0.8,0.7,1c0.3,0.3,0.7,0.5,1.1,0.6
				c0.4,0.1,0.9,0.2,1.4,0.2c0.3,0,0.5,0,0.8,0c0.2,0,0.4-0.1,0.6-0.2c0,0,0.1-0.2,0-0.4c-0.1-0.2-0.3-0.3-0.3-0.3
				c-0.1,0-0.3,0.1-0.5,0.1c-0.2,0-0.3,0-0.5,0c-0.4,0-0.8,0-1.1-0.2c-0.3-0.1-0.6-0.3-0.9-0.5c-0.2-0.2-0.4-0.5-0.5-0.8
				c-0.1-0.3-0.2-0.7-0.2-1c0-0.3,0-0.8,0.2-1.1c0.1-0.3,0.3-0.6,0.6-0.9c0.2-0.2,0.5-0.4,0.9-0.6c0.3-0.1,0.7-0.2,1.1-0.2
				c0.3,0,0.7,0,0.9,0.1c0.2,0.1,0.6,0.2,0.8,0.4c0.2,0.2,0.4,0.4,0.5,0.7c0.1,0.3,0.2,0.6,0.2,0.9s0,0.5-0.1,0.7
				c0,0.2-0.1,0.3-0.2,0.5c-0.1,0.2-0.2,0.2-0.3,0.3c-0.1,0-0.2,0.1-0.4,0.1c-0.1,0-0.2,0-0.2-0.1c0-0.1,0-0.3,0-0.5l0.4-2H9.3
				l-0.2,0.2c-0.1-0.1-0.2-0.1-0.3-0.2c-0.1,0-0.3-0.1-0.4-0.1c-0.2,0-0.5,0-0.7,0.2c-0.2,0.1-0.4,0.3-0.6,0.6
				c-0.2,0.2-0.3,0.5-0.4,0.8c-0.1,0.3-0.1,0.6-0.1,0.9c0,0.2,0,0.3,0.1,0.5c0,0.1,0.1,0.2,0.2,0.3c0.1,0.1,0.2,0.2,0.3,0.2
				c0.1,0,0.2,0.1,0.3,0.1c0.1,0,0.3,0,0.4,0c0.1,0,0.2-0.1,0.3-0.2c0.1-0.1,0.2-0.2,0.3-0.3c0.1-0.1,0.2-0.2,0.2-0.3l0,0
				c0,0.1,0,0.3,0,0.4c0,0.1,0.1,0.2,0.1,0.2c0.1,0,0.1,0.1,0.3,0.1c0.2,0,0.2,0,0.3,0c0.3,0,0.6,0,0.9-0.2c0.3-0.1,0.5-0.3,0.7-0.5
				c0.2-0.2,0.4-0.5,0.5-0.7c0.1-0.3,0.2-0.6,0.2-0.9C11.6,131.1,11.5,130.7,11.4,130.3"/>
		</g>
	</g>
	<rect x="4.7" y="99.7" fill="none" width="153.1" height="53.3"/>
</g>
<g>
	<path fill="#222222" d="M24.2,105.2h0.5l1.3,4.6l0,0l1.3-4.6h0.6l1.3,4.6l0,0l1.3-4.6H31l-1.5,5.2h-0.6l-1.3-4.6l0,0l-1.3,4.6h-0.6
		L24.2,105.2z"/>
	<path fill="#222222" d="M34.6,109.8c-0.2,0.2-0.4,0.4-0.6,0.6c-0.2,0.1-0.5,0.2-0.9,0.2c-0.2,0-0.5,0-0.7-0.1s-0.4-0.2-0.6-0.4
		c-0.2-0.2-0.3-0.3-0.3-0.6c0-0.2-0.1-0.5-0.1-0.7s0-0.5,0.1-0.7c0.1-0.2,0.2-0.4,0.3-0.6c0.1-0.1,0.3-0.3,0.5-0.4s0.4-0.1,0.7-0.1
		c0.3,0,0.5,0,0.7,0.1s0.4,0.2,0.5,0.4c0.1,0.1,0.2,0.3,0.3,0.5s0.1,0.4,0.1,0.6v0.3h-2.8c0,0.1,0,0.2,0,0.4c0,0.1,0.1,0.3,0.2,0.4
		c0.1,0.1,0.2,0.2,0.4,0.3c0.1,0.1,0.4,0.1,0.6,0.1c0.2,0,0.4,0,0.7-0.1c0.2-0.1,0.4-0.2,0.5-0.4L34.6,109.8z M34.3,108.4
		c0-0.1,0-0.3-0.1-0.4c0-0.1-0.1-0.2-0.2-0.3c-0.1-0.1-0.2-0.2-0.4-0.2c-0.1,0-0.3-0.1-0.5-0.1c-0.2,0-0.4,0-0.6,0.1
		c-0.1,0.1-0.3,0.2-0.4,0.3c-0.1,0.1-0.1,0.2-0.2,0.4c0,0.1,0,0.2,0,0.2H34.3z"/>
	<path fill="#222222" d="M35.8,104.8h0.4v5.6h-0.4V104.8z"/>
	<path fill="#222222" d="M37.5,104.8H38v5.6h-0.4v-5.6H37.5z"/>
	<path fill="#222222" d="M39.2,105.6c0-0.1,0-0.2,0.1-0.2s0.1-0.1,0.2-0.1c0.1,0,0.2,0,0.2,0.1c0,0,0.1,0.1,0.1,0.2s0,0.2-0.1,0.2
		c0,0-0.1,0.1-0.2,0.1c-0.1,0-0.2,0-0.2-0.1C39.2,105.8,39.2,105.7,39.2,105.6z M39.3,107h0.4v3.4h-0.4V107z"/>
	<path fill="#222222" d="M41,108c0,0,0-0.1,0-0.2s0-0.2,0-0.3c0-0.1,0-0.2,0-0.3c0-0.1,0-0.1,0-0.2h0.4c0,0.1,0,0.2,0,0.4
		c0,0.1,0,0.2,0,0.2l0,0c0.1-0.2,0.2-0.3,0.4-0.5s0.4-0.2,0.7-0.2c0.3,0,0.5,0,0.7,0.1s0.3,0.2,0.4,0.3c0.1,0.1,0.1,0.3,0.2,0.5
		s0,0.4,0,0.6v2h-0.4v-2c0-0.1,0-0.3,0-0.4s0-0.2-0.1-0.3c0-0.1-0.1-0.2-0.2-0.2c-0.1,0-0.2-0.1-0.4-0.1c-0.1,0-0.3,0-0.5,0.1
		c-0.2,0.1-0.3,0.1-0.4,0.2c-0.1,0.1-0.2,0.2-0.2,0.4c0,0.2-0.1,0.4-0.1,0.6v1.7H41V108L41,108z"/>
	<path fill="#222222" d="M48.5,110.2c0,0.4,0,0.8-0.2,1c-0.1,0.2-0.3,0.5-0.5,0.6c-0.2,0.1-0.4,0.2-0.6,0.3c-0.2,0-0.4,0.1-0.6,0.1
		c-0.2,0-0.3,0-0.5,0c-0.1,0-0.3-0.1-0.5-0.1s-0.3-0.1-0.4-0.2c-0.1-0.1-0.2-0.2-0.3-0.3l0.3-0.3c0.1,0.2,0.3,0.4,0.6,0.5
		c0.2,0.1,0.5,0.1,0.8,0.1c0.2,0,0.4,0,0.6-0.1c0.1,0,0.3-0.1,0.4-0.2c0.1-0.1,0.2-0.2,0.2-0.3c0-0.1,0.1-0.2,0.1-0.3
		c0-0.1,0-0.2,0-0.3c0-0.1,0-0.2,0-0.2V110l0,0c-0.1,0.2-0.3,0.4-0.5,0.5s-0.5,0.2-0.8,0.2c-0.2,0-0.5,0-0.7-0.1s-0.4-0.2-0.6-0.4
		c-0.1-0.1-0.3-0.3-0.4-0.6c-0.1-0.2-0.1-0.4-0.1-0.7c0-0.2,0-0.5,0.1-0.7s0.2-0.4,0.4-0.6c0.1-0.1,0.4-0.3,0.6-0.4
		c0.2-0.1,0.5-0.1,0.7-0.1c0.3,0,0.6,0,0.8,0.2c0.2,0.1,0.4,0.3,0.5,0.5l0,0V107h0.4L48.5,110.2L48.5,110.2z M48.1,108.7
		c0-0.2,0-0.4-0.1-0.5c-0.1-0.1-0.2-0.3-0.3-0.4s-0.3-0.2-0.4-0.3c-0.2-0.1-0.3-0.1-0.5-0.1s-0.4,0-0.5,0.1s-0.3,0.2-0.4,0.3
		c-0.1,0.1-0.2,0.3-0.3,0.4s-0.1,0.3-0.1,0.5s0,0.4,0.1,0.5c0,0.1,0.2,0.3,0.3,0.4s0.3,0.2,0.4,0.3c0.1,0.1,0.3,0.1,0.5,0.1
		s0.4,0,0.5-0.1s0.3-0.2,0.4-0.3c0.1-0.1,0.2-0.3,0.3-0.4C48.1,109.1,48.1,108.9,48.1,108.7z"/>
	<path fill="#222222" d="M51.3,107.4h-1v2.2c0,0.1,0,0.3,0.1,0.3c0.1,0.1,0.2,0.1,0.3,0.1s0.2,0,0.2,0s0.2,0,0.2-0.1v0.4
		c-0.1,0-0.2,0-0.3,0.1c-0.1,0-0.2,0-0.3,0s-0.3,0-0.4,0s-0.2-0.1-0.3-0.2c-0.1-0.1-0.1-0.2-0.1-0.3c0-0.1,0-0.2,0-0.3v-2.2h-0.8
		V107h0.8v-1h0.4v1h1L51.3,107.4L51.3,107.4z"/>
	<path fill="#222222" d="M51.9,108.7c0-0.2,0-0.5,0.1-0.7s0.2-0.4,0.4-0.6c0.1-0.1,0.3-0.3,0.6-0.4c0.2-0.1,0.5-0.1,0.7-0.1
		c0.2,0,0.5,0,0.7,0.1s0.4,0.2,0.6,0.4s0.3,0.3,0.4,0.6c0.1,0.2,0.1,0.5,0.1,0.7s0,0.5-0.1,0.7s-0.2,0.4-0.4,0.6s-0.3,0.3-0.6,0.4
		c-0.2,0.1-0.5,0.1-0.7,0.1c-0.2,0-0.5,0-0.7-0.1s-0.4-0.2-0.6-0.4c-0.1-0.1-0.3-0.3-0.4-0.6C52,109.2,51.9,109,51.9,108.7z
		 M52.3,108.7c0,0.2,0,0.4,0.1,0.5c0,0.2,0.1,0.3,0.3,0.4c0.1,0.1,0.2,0.2,0.4,0.3c0.2,0.1,0.3,0.1,0.6,0.1c0.3,0,0.4,0,0.6-0.1
		c0.2-0.1,0.3-0.2,0.4-0.3c0.1-0.1,0.2-0.3,0.3-0.4c0-0.2,0.1-0.3,0.1-0.5s0-0.4-0.1-0.5c0-0.2-0.1-0.3-0.3-0.4
		c-0.1-0.1-0.2-0.2-0.4-0.3c-0.2-0.1-0.3-0.1-0.6-0.1c-0.3,0-0.4,0-0.6,0.1c-0.2,0.1-0.3,0.2-0.4,0.3c-0.1,0.1-0.2,0.3-0.3,0.4
		C52.4,108.3,52.3,108.5,52.3,108.7z"/>
	<path fill="#222222" d="M56.5,108c0,0,0-0.1,0-0.2s0-0.2,0-0.3c0-0.1,0-0.2,0-0.3c0-0.1,0-0.1,0-0.2h0.4c0,0.1,0,0.2,0,0.4
		c0,0.1,0,0.2,0,0.2l0,0c0.1-0.2,0.2-0.3,0.4-0.5c0.2-0.2,0.4-0.2,0.7-0.2s0.5,0,0.7,0.1s0.3,0.2,0.4,0.3c0.1,0.1,0.1,0.3,0.2,0.5
		c0.1,0.2,0,0.4,0,0.6v2h-0.4v-2c0-0.1,0-0.3,0-0.4s0-0.2-0.1-0.3c0-0.1-0.1-0.2-0.2-0.2c-0.1,0-0.2-0.1-0.4-0.1
		c-0.1,0-0.3,0-0.5,0.1s-0.3,0.1-0.4,0.2c-0.1,0.1-0.2,0.2-0.2,0.4c0,0.2-0.1,0.4-0.1,0.6v1.7h-0.4V108H56.5z"/>
	<path fill="#222222" d="M66.9,109.6c-0.2,0.3-0.5,0.6-0.9,0.7c-0.3,0.1-0.7,0.2-1.1,0.2s-0.8,0-1.1-0.2c-0.3-0.1-0.6-0.3-0.9-0.6
		c-0.2-0.2-0.4-0.5-0.6-0.9c-0.1-0.3-0.2-0.7-0.2-1.1s0-0.8,0.2-1.1c0.1-0.3,0.3-0.6,0.6-0.9c0.2-0.2,0.5-0.4,0.9-0.6
		c0.3-0.1,0.7-0.2,1.1-0.2c0.3,0,0.7,0,1,0.2c0.3,0.1,0.6,0.3,0.8,0.6l-0.4,0.3c-0.1-0.2-0.4-0.4-0.6-0.5c-0.2-0.1-0.5-0.2-0.8-0.2
		s-0.7,0-0.9,0.2c-0.3,0.1-0.5,0.3-0.7,0.5s-0.3,0.4-0.4,0.7c-0.1,0.3-0.1,0.6-0.1,0.9s0,0.6,0.1,0.9s0.2,0.5,0.4,0.7
		c0.2,0.2,0.4,0.4,0.7,0.5c0.3,0.1,0.6,0.2,0.9,0.2c0.1,0,0.3,0,0.4,0s0.3-0.1,0.4-0.1s0.3-0.1,0.4-0.2s0.2-0.2,0.3-0.4L66.9,109.6z
		"/>
	<path fill="#222222" d="M67.7,105.6c0-0.1,0-0.2,0.1-0.2c0,0,0.1-0.1,0.2-0.1s0.2,0,0.2,0.1c0,0,0.1,0.1,0.1,0.2s0,0.2-0.1,0.2
		c0,0-0.1,0.1-0.2,0.1s-0.2,0-0.2-0.1C67.7,105.8,67.7,105.7,67.7,105.6z M67.8,107h0.4v3.4h-0.4V107z"/>
	<path fill="#222222" d="M71.1,107.4h-1v2.2c0,0.1,0,0.3,0.1,0.3c0.1,0.1,0.2,0.1,0.3,0.1c0.1,0,0.2,0,0.2,0s0.2,0,0.2-0.1v0.4
		c-0.1,0-0.2,0-0.3,0.1s-0.2,0-0.3,0c-0.1,0-0.3,0-0.4,0s-0.2-0.1-0.3-0.2c-0.1-0.1-0.1-0.2-0.1-0.3c0-0.1,0-0.2,0-0.3v-2.2h-0.8
		V107h0.8v-1h0.4v1h1L71.1,107.4L71.1,107.4z"/>
	<path fill="#222222" d="M72.9,111.5c-0.1,0.2-0.2,0.4-0.3,0.5c-0.1,0.1-0.3,0.2-0.6,0.2c-0.1,0-0.1,0-0.2,0s-0.1,0-0.2,0v-0.4
		c0,0,0.1,0,0.2,0c0,0,0.1,0,0.2,0s0.1,0,0.2,0l0.1-0.1c0,0,0.1-0.1,0.1-0.2c0,0,0-0.1,0.1-0.2l0.3-0.8l-1.4-3.4h0.5l1.1,2.8
		l1.1-2.8h0.5L72.9,111.5z"/>
</g>
<g>
	<path fill="#222222" d="M24.4,119.4c0-0.2,0-0.4,0-0.6s0-0.4,0.1-0.6s0.1-0.4,0.2-0.6s0.2-0.3,0.3-0.5c0.1-0.1,0.3-0.2,0.5-0.3
		c0.1,0,0.3,0,0.6,0c0.3,0,0.5,0,0.6,0.1c0.2,0.1,0.3,0.2,0.5,0.3c0.1,0.1,0.2,0.3,0.3,0.5s0.1,0.4,0.2,0.6c0.1,0.2,0.1,0.4,0.1,0.6
		s0,0.4,0,0.6s0,0.4,0,0.6s0,0.4-0.1,0.6c0,0.2-0.1,0.4-0.2,0.6s-0.2,0.3-0.3,0.5c-0.1,0.1-0.3,0.2-0.5,0.3
		c-0.2,0.1-0.4,0.1-0.6,0.1s-0.5,0-0.6-0.1c-0.2-0.1-0.3-0.2-0.5-0.3c-0.1-0.1-0.2-0.3-0.3-0.5s-0.1-0.4-0.2-0.6s-0.1-0.4-0.1-0.6
		S24.4,119.7,24.4,119.4z M24.9,119.4c0,0.1,0,0.3,0,0.5c0,0.1,0,0.3,0,0.5c0,0.2,0.1,0.3,0.1,0.5c0,0.1,0.1,0.3,0.2,0.4
		s0.2,0.2,0.3,0.3c0.1,0.1,0.3,0.1,0.5,0.1c0.2,0,0.3,0,0.5-0.1c0.1-0.1,0.2-0.2,0.3-0.3c0.1-0.1,0.1-0.3,0.2-0.4
		c0-0.1,0.1-0.3,0.1-0.5c0-0.2,0-0.3,0-0.5c0-0.1,0-0.3,0-0.5c0-0.1,0-0.3,0-0.4c0-0.2,0-0.3,0-0.5S27,118.2,27,118
		c0-0.1-0.1-0.3-0.2-0.4c-0.1-0.1-0.2-0.2-0.3-0.3c-0.1-0.1-0.3-0.1-0.5-0.1c-0.2,0-0.3,0-0.5,0.1c-0.1,0.1-0.2,0.2-0.3,0.3
		c-0.1,0.1-0.1,0.3-0.2,0.4c-0.1,0.1-0.1,0.3-0.1,0.5c0,0.1,0,0.3,0,0.5S24.9,119.4,24.9,119.4z"/>
	<path fill="#222222" d="M28.3,121.6l1.9-2.1c0.1-0.1,0.2-0.2,0.3-0.3c0.1-0.1,0.2-0.2,0.2-0.3c0-0.1,0.1-0.2,0.2-0.3
		c0-0.1,0-0.2,0-0.4c0-0.3-0.1-0.5-0.3-0.7c-0.2-0.2-0.4-0.2-0.8-0.2c-0.3,0-0.5,0.1-0.7,0.2s-0.3,0.4-0.4,0.6h-0.5
		c0.1-0.4,0.3-0.7,0.6-0.9c0.3-0.2,0.6-0.3,1-0.3c0.2,0,0.4,0,0.6,0.1c0.2,0.1,0.3,0.1,0.5,0.3c0.1,0.1,0.2,0.2,0.3,0.4
		c0.1,0.1,0.1,0.3,0.1,0.6c0,0.2,0,0.4-0.1,0.6c0,0.2-0.1,0.3-0.2,0.5c-0.1,0.1-0.2,0.3-0.3,0.4c-0.1,0.1-0.3,0.3-0.4,0.4l-1.6,1.7
		h2.8v0.4h-3.2V121.6L28.3,121.6z"/>
	<path fill="#222222" d="M35.1,117.3l-2.1,4.8h-0.5l2.1-4.8h-2.5v-0.4h3V117.3z"/>
	<path fill="#222222" d="M38.4,121c0.1,0.2,0.2,0.4,0.4,0.6c0.2,0.1,0.4,0.2,0.7,0.2c0.2,0,0.4,0,0.5-0.1c0.1,0,0.3-0.1,0.4-0.2
		s0.2-0.2,0.2-0.4c0-0.1,0.1-0.3,0.1-0.4c0-0.2,0-0.4-0.1-0.5s-0.2-0.2-0.3-0.3c-0.1-0.1-0.3-0.1-0.5-0.1c-0.1,0-0.3,0-0.5,0h-0.2
		v-0.4h0.2c0.1,0,0.3,0,0.4,0s0.3-0.1,0.4-0.2c0.1-0.1,0.2-0.2,0.3-0.3c0-0.1,0.1-0.3,0.1-0.5c0-0.3-0.1-0.5-0.3-0.7
		s-0.4-0.3-0.7-0.3c-0.2,0-0.4,0-0.6,0.1c-0.1,0.1-0.3,0.2-0.4,0.4l-0.4-0.2c0.1-0.3,0.3-0.5,0.6-0.6c0.2-0.1,0.5-0.2,0.8-0.2
		c0.2,0,0.4,0,0.6,0.1c0.2,0,0.3,0.1,0.5,0.2c0.1,0.1,0.2,0.2,0.3,0.4s0.1,0.4,0.1,0.6c0,0.3-0.1,0.5-0.2,0.8
		c-0.1,0.2-0.4,0.4-0.7,0.5l0,0c0.2,0,0.3,0.1,0.5,0.1c0.1,0,0.2,0.2,0.3,0.3c0.1,0.1,0.2,0.2,0.2,0.4c0,0.1,0.1,0.3,0.1,0.5
		s0,0.4-0.1,0.6s-0.2,0.3-0.3,0.5c-0.1,0.1-0.3,0.2-0.5,0.3c-0.2,0.1-0.4,0.1-0.7,0.1c-0.4,0-0.7-0.1-1-0.2
		c-0.3-0.1-0.5-0.4-0.6-0.8L38.4,121z"/>
	<path fill="#222222" d="M41.9,118.1c0-0.2,0-0.4,0.1-0.6s0.2-0.3,0.3-0.4c0.1-0.1,0.3-0.2,0.5-0.3c0.2,0,0.4-0.1,0.6-0.1
		s0.4,0,0.6,0.1c0.2,0,0.3,0.1,0.5,0.3c0.1,0.1,0.2,0.2,0.3,0.4c0.1,0.2,0.1,0.3,0.1,0.6c0,0.1,0,0.2,0,0.4c0,0.1-0.1,0.2-0.2,0.3
		c0,0.1-0.1,0.2-0.3,0.3c-0.1,0.1-0.2,0.1-0.3,0.2l0,0c0.2,0,0.3,0.1,0.4,0.2c0.1,0.1,0.2,0.2,0.3,0.3c0.1,0.1,0.1,0.2,0.2,0.4
		c0,0.1,0,0.3,0,0.5s0,0.4-0.1,0.6s-0.2,0.3-0.3,0.5c-0.1,0.1-0.3,0.2-0.5,0.3c-0.2,0.1-0.4,0.1-0.7,0.1s-0.4,0-0.7-0.1
		c-0.2-0.1-0.4-0.2-0.5-0.3c-0.1-0.1-0.2-0.3-0.3-0.5c0-0.2,0-0.4,0-0.7c0-0.1,0-0.3,0-0.5c0-0.1,0.1-0.3,0.2-0.4
		c0.1-0.1,0.2-0.2,0.3-0.3c0.1-0.1,0.3-0.1,0.4-0.2l0,0c-0.1,0-0.2-0.1-0.3-0.2s-0.2-0.2-0.3-0.3c-0.1-0.1-0.1-0.2-0.1-0.3
		C42,118.4,41.9,118.3,41.9,118.1z M42.2,120.6c0,0.1,0,0.3,0.1,0.4c0.1,0.1,0.1,0.2,0.2,0.4c0.1,0.1,0.2,0.2,0.3,0.2
		s0.3,0.1,0.5,0.1s0.3,0,0.5-0.1s0.2-0.1,0.3-0.2s0.2-0.2,0.2-0.4s0.1-0.3,0.1-0.4c0-0.2,0-0.3-0.1-0.5c0-0.1-0.1-0.2-0.2-0.4
		c-0.1-0.1-0.2-0.2-0.4-0.2s-0.3-0.1-0.4-0.1c-0.1,0-0.3,0-0.4,0.1c-0.1,0-0.2,0.1-0.4,0.2c-0.1,0.1-0.2,0.2-0.2,0.4
		C42.2,120.3,42.2,120.4,42.2,120.6z M42.4,118.1c0,0.1,0,0.2,0,0.4c0,0.1,0.1,0.2,0.2,0.3c0.1,0.1,0.2,0.1,0.3,0.2
		c0.1,0,0.2,0.1,0.4,0.1s0.3,0,0.4-0.1s0.2-0.1,0.3-0.2s0.1-0.2,0.2-0.3c0-0.1,0-0.2,0-0.4c0-0.3-0.1-0.5-0.3-0.7s-0.4-0.3-0.7-0.3
		s-0.5,0.1-0.7,0.3C42.5,117.6,42.4,117.8,42.4,118.1z"/>
	<path fill="#222222" d="M48.5,117.3l-2.1,4.8H46l2.1-4.8h-2.6v-0.4h2.9L48.5,117.3L48.5,117.3z"/>
	<path fill="#222222" d="M54.3,117.3h-2.1v1.7c0.1,0,0.2-0.1,0.4-0.1s0.3,0,0.4,0c0.2,0,0.5,0,0.7,0.1c0.2,0.1,0.4,0.2,0.5,0.4
		c0.1,0.1,0.2,0.3,0.3,0.6c0.1,0.2,0.1,0.4,0.1,0.7s0,0.5-0.1,0.8c-0.1,0.2-0.2,0.4-0.4,0.5c-0.1,0.1-0.3,0.2-0.5,0.3
		c-0.2,0-0.4,0.1-0.6,0.1c-0.4,0-0.7-0.1-0.9-0.2s-0.5-0.4-0.6-0.7l0.5-0.2c0,0.1,0.1,0.2,0.2,0.3c0.1,0.1,0.1,0.1,0.3,0.2
		c0.1,0.1,0.2,0.1,0.3,0.1s0.2,0,0.3,0s0.2,0,0.4-0.1c0.1,0,0.3-0.1,0.4-0.2c0.1-0.1,0.2-0.2,0.3-0.4c0.1-0.1,0.1-0.3,0.1-0.6
		c0-0.2,0-0.4-0.1-0.5c0-0.1-0.1-0.3-0.3-0.4c-0.1-0.1-0.2-0.2-0.4-0.3c-0.2,0-0.3-0.1-0.5-0.1s-0.4,0-0.6,0.1
		c-0.2,0-0.3,0.1-0.5,0.2v-2.7h2.6L54.3,117.3L54.3,117.3z"/>
	<path fill="#222222" d="M55.3,118.1c0-0.2,0-0.4,0.1-0.6s0.2-0.3,0.3-0.4s0.3-0.2,0.5-0.3c0.2,0,0.4-0.1,0.6-0.1s0.4,0,0.6,0.1
		c0.2,0,0.3,0.1,0.5,0.3c0.1,0.1,0.2,0.2,0.3,0.4c0.1,0.2,0.1,0.3,0.1,0.6c0,0.1,0,0.2,0,0.4c0,0.1-0.1,0.2-0.2,0.3
		c0,0.1-0.1,0.2-0.3,0.3c-0.1,0.1-0.2,0.1-0.3,0.2l0,0c0.2,0,0.3,0.1,0.4,0.2c0.1,0.1,0.2,0.2,0.3,0.3c0.1,0.1,0.1,0.2,0.2,0.4
		s0,0.3,0,0.5s0,0.4-0.1,0.6s-0.2,0.3-0.3,0.5c-0.1,0.1-0.3,0.2-0.5,0.3c-0.2,0.1-0.4,0.1-0.7,0.1s-0.4,0-0.7-0.1
		c-0.2-0.1-0.4-0.2-0.5-0.3c-0.1-0.1-0.2-0.3-0.3-0.5s-0.1-0.4-0.1-0.6c0-0.1,0-0.3,0-0.5c0-0.1,0.1-0.3,0.2-0.4
		c0.1-0.1,0.2-0.2,0.3-0.3c0.1-0.1,0.3-0.1,0.4-0.2l0,0c-0.1,0-0.2-0.1-0.3-0.2s-0.2-0.2-0.3-0.3c-0.1-0.1-0.1-0.2-0.1-0.3
		C55.2,118.4,55.3,118.3,55.3,118.1z M55.7,120.6c0,0.1,0,0.3,0.1,0.4s0.1,0.2,0.2,0.4c0.1,0.1,0.2,0.2,0.3,0.2s0.3,0.1,0.5,0.1
		s0.3,0,0.5-0.1c0.1,0,0.2-0.1,0.3-0.2s0.2-0.2,0.2-0.4c0-0.1,0.1-0.3,0.1-0.4c0-0.2,0-0.3-0.1-0.5c0-0.1-0.1-0.2-0.2-0.4
		c-0.1-0.1-0.2-0.2-0.4-0.2s-0.3-0.1-0.4-0.1s-0.3,0-0.4,0.1c-0.1,0-0.2,0.1-0.4,0.2c-0.1,0.1-0.2,0.2-0.2,0.4
		C55.7,120.3,55.7,120.4,55.7,120.6z M55.8,118.1c0,0.1,0,0.2,0,0.4c0,0.1,0.1,0.2,0.2,0.3c0.1,0.1,0.2,0.1,0.3,0.2
		c0.1,0,0.2,0.1,0.4,0.1c0.1,0,0.3,0,0.4-0.1c0.1,0,0.2-0.1,0.3-0.2c0.1-0.1,0.1-0.2,0.2-0.3c0-0.1,0-0.2,0-0.4
		c0-0.3-0.1-0.5-0.3-0.7c-0.2-0.2-0.4-0.3-0.7-0.3c-0.2,0-0.5,0.1-0.7,0.3C55.9,117.6,55.8,117.8,55.8,118.1z"/>
	<path fill="#222222" d="M62,117.3h-2.1v1.7c0.1,0,0.2-0.1,0.4-0.1c0.1,0,0.3,0,0.4,0c0.2,0,0.5,0,0.7,0.1s0.4,0.2,0.5,0.4
		c0.1,0.1,0.2,0.3,0.3,0.6c0.1,0.2,0.1,0.4,0.1,0.7s0,0.5-0.1,0.8c-0.1,0.2-0.2,0.4-0.4,0.5c-0.1,0.1-0.3,0.2-0.5,0.3
		c-0.2,0-0.4,0.1-0.6,0.1c-0.4,0-0.7-0.1-0.9-0.2s-0.5-0.4-0.6-0.7l0.5-0.2c0,0.1,0.1,0.2,0.2,0.3c0.1,0.1,0.1,0.1,0.3,0.2
		c0.1,0.1,0.2,0.1,0.3,0.1s0.2,0,0.3,0s0.2,0,0.4-0.1c0.2-0.1,0.3-0.1,0.4-0.2c0.1-0.1,0.2-0.2,0.3-0.4c0.1-0.1,0.1-0.3,0.1-0.6
		c0-0.2,0-0.4-0.1-0.5c0-0.1-0.1-0.3-0.3-0.4c-0.1-0.1-0.2-0.2-0.4-0.3c-0.2,0-0.3-0.1-0.5-0.1s-0.4,0-0.6,0.1
		c-0.2,0-0.3,0.1-0.5,0.2v-2.7h2.6L62,117.3L62,117.3z"/>
	<path fill="#222222" d="M62.8,121.6l1.9-2.1c0.1-0.1,0.2-0.2,0.3-0.3c0.1-0.1,0.2-0.2,0.2-0.3c0.1-0.1,0.1-0.2,0.2-0.3
		c0-0.1,0-0.2,0-0.4c0-0.3-0.1-0.5-0.3-0.7c-0.2-0.2-0.4-0.2-0.8-0.2c-0.3,0-0.5,0.1-0.7,0.2s-0.3,0.4-0.4,0.6h-0.5
		c0.1-0.4,0.3-0.7,0.6-0.9c0.3-0.2,0.6-0.3,1-0.3c0.2,0,0.4,0,0.6,0.1c0.2,0,0.3,0.1,0.5,0.3c0.1,0.1,0.2,0.2,0.3,0.4
		c0.1,0.1,0.1,0.3,0.1,0.6c0,0.2,0,0.4-0.1,0.6c0,0.2-0.1,0.3-0.2,0.5c-0.1,0.1-0.2,0.3-0.3,0.4s-0.3,0.3-0.4,0.4l-1.6,1.7H66v0.4
		h-3.2L62.8,121.6L62.8,121.6z"/>
</g>
<g>
	<path fill="#222222" d="M24.8,132.9c0.1,0.2,0.2,0.3,0.4,0.4c0.2,0.1,0.4,0.1,0.6,0.1c0.1,0,0.2,0,0.3,0c0.1,0,0.2-0.1,0.2-0.1
		c0.1,0,0.1-0.1,0.2-0.2c0-0.1,0-0.1,0-0.3s0-0.3-0.1-0.3c-0.1-0.1-0.2-0.1-0.4-0.2c-0.1,0-0.3-0.1-0.5-0.1c-0.1,0-0.3-0.1-0.5-0.1
		c-0.1,0-0.3-0.1-0.4-0.3c-0.1-0.1-0.1-0.3-0.1-0.5s0-0.3,0.1-0.4c0-0.1,0.1-0.2,0.3-0.3c0.1-0.1,0.2-0.1,0.4-0.2c0.1,0,0.3,0,0.4,0
		c0.3,0,0.5,0,0.7,0.1c0.2,0.1,0.4,0.3,0.5,0.5l-0.4,0.2c-0.1-0.1-0.2-0.3-0.3-0.4c-0.1-0.1-0.3-0.1-0.5-0.1c-0.1,0-0.1,0-0.2,0
		s-0.1,0-0.2,0.1c0,0-0.1,0.1-0.2,0.2c0,0,0,0.1,0,0.2c0,0.1,0,0.3,0.1,0.3c0.1,0.1,0.2,0.1,0.4,0.2c0.1,0,0.3,0.1,0.5,0.1
		c0.1,0,0.3,0.1,0.5,0.1c0.1,0,0.3,0.1,0.4,0.3c0.1,0.1,0.1,0.3,0.1,0.5s0,0.3-0.1,0.5s-0.1,0.2-0.3,0.3c-0.1,0.1-0.2,0.1-0.4,0.2
		c-0.1,0-0.3,0-0.5,0c-0.3,0-0.6,0-0.8-0.2c-0.2-0.1-0.4-0.3-0.6-0.5L24.8,132.9z"/>
	<path fill="#222222" d="M27.9,128.2h0.4v2.8l0,0c0.1-0.2,0.2-0.3,0.4-0.5c0.2-0.2,0.4-0.2,0.7-0.2c0.3,0,0.5,0,0.7,0.1
		c0.2,0.1,0.3,0.2,0.4,0.3c0.1,0.1,0.1,0.3,0.2,0.5c0,0.2,0,0.4,0,0.6v2h-0.4v-2c0-0.1,0-0.3,0-0.4s0-0.2-0.1-0.3
		c0-0.1-0.1-0.2-0.2-0.2s-0.2-0.1-0.4-0.1c-0.1,0-0.3,0-0.5,0.1c-0.1,0-0.3,0.1-0.4,0.2c-0.1,0.1-0.2,0.2-0.2,0.4s-0.1,0.4-0.1,0.6
		v1.7H28v-5.6H27.9z"/>
	<path fill="#222222" d="M34.6,132.3c0,0.2,0,0.3,0,0.4s0,0.2,0,0.4s0,0.2,0,0.3c0,0.1,0,0.2,0,0.3h-0.4c0-0.2,0-0.3,0-0.6l0,0
		c-0.1,0.2-0.3,0.4-0.5,0.5c-0.2,0.1-0.4,0.1-0.7,0.1c-0.1,0-0.3,0-0.4,0c-0.1,0-0.3-0.1-0.4-0.2c-0.1-0.1-0.2-0.2-0.3-0.3
		c-0.1-0.1-0.1-0.3-0.1-0.5s0-0.5,0.2-0.6c0.1-0.1,0.3-0.3,0.5-0.3c0.2-0.1,0.4-0.1,0.6-0.1s0.4,0,0.6,0h0.5v-0.1
		c0-0.3-0.1-0.5-0.3-0.6c-0.2-0.1-0.4-0.2-0.7-0.2c-0.4,0-0.8,0.1-1,0.4l-0.2-0.3c0.1-0.1,0.4-0.3,0.6-0.4c0.2-0.1,0.5-0.1,0.7-0.1
		c0.4,0,0.8,0.1,1,0.3s0.4,0.5,0.4,0.9L34.6,132.3L34.6,132.3z M33.8,132c-0.2,0-0.4,0-0.5,0c-0.2,0-0.3,0-0.5,0.1
		c-0.1,0-0.2,0.1-0.3,0.2s-0.1,0.2-0.1,0.4c0,0.1,0,0.2,0,0.3c0,0.1,0.1,0.1,0.2,0.2c0.1,0,0.1,0.1,0.2,0.1c0.1,0,0.2,0,0.3,0
		c0.2,0,0.4,0,0.6-0.1c0.1,0,0.3-0.1,0.4-0.3c0.1-0.1,0.1-0.2,0.2-0.4c0-0.1,0-0.3,0-0.4V132H33.8z"/>
	<path fill="#222222" d="M35.8,131.3c0,0,0-0.1,0-0.2c0-0.1,0-0.2,0-0.3c0-0.1,0-0.2,0-0.3c0-0.1,0-0.1,0-0.2h0.4c0,0.1,0,0.2,0,0.4
		c0,0.1,0,0.2,0,0.2c0.1-0.2,0.2-0.4,0.4-0.5c0.2-0.1,0.4-0.2,0.7-0.2h0.1h0.1v0.4c0,0-0.1,0-0.2,0c-0.2,0-0.4,0-0.5,0.1
		c-0.1,0-0.2,0.1-0.3,0.2s-0.1,0.2-0.2,0.4s0,0.3,0,0.5v1.9h-0.4L35.8,131.3L35.8,131.3z"/>
	<path fill="#222222" d="M38.2,130.4h0.4v0.6l0,0c0-0.1,0.1-0.2,0.2-0.3c0.1-0.1,0.2-0.1,0.3-0.2c0.1-0.1,0.2-0.1,0.4-0.1
		s0.3,0,0.4,0c0.2,0,0.5,0,0.7,0.1c0.2,0.1,0.4,0.2,0.6,0.4c0.1,0.2,0.3,0.3,0.4,0.6c0.1,0.3,0.1,0.5,0.1,0.7s0,0.5-0.1,0.7
		s-0.2,0.4-0.4,0.6s-0.3,0.3-0.6,0.4c-0.3,0.1-0.5,0.1-0.7,0.1c-0.1,0-0.2,0-0.4,0c-0.1,0-0.2,0-0.4-0.1c-0.1-0.1-0.2-0.1-0.3-0.2
		s-0.2-0.2-0.2-0.3l0,0v2.3h-0.4V130.4z M38.6,132.1c0,0.2,0,0.4,0.1,0.5c0.1,0.2,0.2,0.3,0.3,0.4c0.1,0.1,0.3,0.2,0.4,0.3
		c0.2,0.1,0.4,0.1,0.6,0.1c0.2,0,0.4,0,0.6-0.1c0.2,0,0.3-0.2,0.4-0.3c0.1-0.1,0.2-0.3,0.3-0.4c0-0.2,0.1-0.3,0.1-0.5s0-0.4-0.1-0.5
		c0-0.2-0.1-0.3-0.3-0.4c-0.1-0.1-0.2-0.2-0.4-0.3c-0.2,0-0.3-0.1-0.6-0.1c-0.2,0-0.4,0-0.6,0.1c-0.2,0.1-0.3,0.2-0.4,0.3
		c-0.1,0.1-0.2,0.3-0.3,0.4C38.6,131.7,38.6,131.9,38.6,132.1z"/>
	<path fill="#222222" d="M45.8,133.1c-0.2,0.2-0.4,0.4-0.6,0.6c-0.2,0.1-0.5,0.2-0.9,0.2c-0.2,0-0.5,0-0.7-0.1
		c-0.2-0.1-0.4-0.2-0.6-0.4c-0.2-0.2-0.3-0.3-0.3-0.6c0-0.3-0.1-0.5-0.1-0.7s0-0.5,0.1-0.7s0.2-0.4,0.3-0.6s0.3-0.3,0.5-0.4
		c0.2-0.1,0.4-0.1,0.7-0.1c0.3,0,0.5,0,0.7,0.1c0.2,0.1,0.4,0.2,0.5,0.4c0.1,0.1,0.2,0.3,0.3,0.5c0,0.2,0.1,0.4,0.1,0.6v0.3H43
		c0,0.1,0,0.2,0,0.4c0,0.1,0.1,0.3,0.2,0.4c0.1,0.1,0.2,0.2,0.4,0.3c0.2,0.1,0.4,0.1,0.6,0.1c0.2,0,0.4,0,0.7-0.1
		c0.2-0.1,0.4-0.2,0.5-0.4L45.8,133.1z M45.5,131.8c0-0.1,0-0.3-0.1-0.4c-0.1-0.1-0.1-0.2-0.2-0.3c-0.1-0.1-0.2-0.2-0.4-0.2
		c-0.1,0-0.3-0.1-0.5-0.1c-0.2,0-0.4,0-0.6,0.1c-0.1,0.1-0.3,0.2-0.4,0.3c-0.1,0.1-0.1,0.2-0.2,0.4s0,0.2,0,0.2
		C43,131.8,45.5,131.8,45.5,131.8z"/>
	<path fill="#222222" d="M46.9,131.3c0,0,0-0.1,0-0.2c0-0.1,0-0.2,0-0.3c0-0.1,0-0.2,0-0.3c0-0.1,0-0.1,0-0.2h0.4c0,0.1,0,0.2,0,0.4
		c0,0.1,0,0.2,0,0.2c0.1-0.2,0.2-0.4,0.4-0.5c0.2-0.1,0.4-0.2,0.7-0.2h0.1h0.1v0.4c0,0-0.1,0-0.2,0c-0.2,0-0.4,0-0.5,0.1
		c-0.1,0-0.2,0.1-0.3,0.2s-0.1,0.2-0.2,0.4c0,0.1,0,0.3,0,0.5v1.9H47L46.9,131.3L46.9,131.3z"/>
	<path fill="#222222" d="M52.2,133.2L52.2,133.2c-0.1,0.1-0.2,0.2-0.3,0.3s-0.2,0.1-0.3,0.2c-0.1,0.1-0.2,0.1-0.4,0.1
		c-0.1,0-0.3,0-0.4,0c-0.2,0-0.5,0-0.7-0.1c-0.2-0.1-0.4-0.2-0.6-0.4c-0.1-0.1-0.3-0.3-0.4-0.6c-0.1-0.2-0.1-0.5-0.1-0.7
		s0-0.5,0.1-0.7s0.2-0.4,0.4-0.6c0.1-0.1,0.3-0.3,0.6-0.4c0.3-0.1,0.5-0.1,0.7-0.1c0.1,0,0.2,0,0.4,0c0.1,0,0.2,0,0.4,0.1
		c0.1,0.1,0.2,0.1,0.3,0.2s0.2,0.2,0.2,0.3l0,0V128h0.4v5.6h-0.4v-0.4H52.2z M52.2,132.1c0-0.2,0-0.4-0.1-0.5
		c-0.1-0.2-0.2-0.3-0.3-0.4c-0.1-0.1-0.3-0.2-0.4-0.3c-0.2-0.1-0.4-0.1-0.6-0.1c-0.2,0-0.4,0-0.6,0.1c-0.2,0.1-0.3,0.2-0.4,0.3
		c-0.1,0.1-0.2,0.3-0.3,0.4c0,0.2-0.1,0.3-0.1,0.5s0,0.4,0.1,0.5c0,0.2,0.1,0.3,0.3,0.4c0.1,0.1,0.2,0.2,0.4,0.3
		c0.2,0.1,0.3,0.1,0.6,0.1c0.2,0,0.4,0,0.6-0.1c0.2-0.1,0.3-0.2,0.4-0.3c0.1-0.1,0.2-0.3,0.3-0.4C52.2,132.4,52.2,132.3,52.2,132.1z
		"/>
	<path fill="#222222" d="M56.7,133.1c-0.2,0.2-0.4,0.4-0.6,0.6c-0.2,0.1-0.5,0.2-0.9,0.2c-0.2,0-0.5,0-0.7-0.1
		c-0.2-0.1-0.4-0.2-0.6-0.4c-0.2-0.2-0.3-0.3-0.3-0.6c0-0.3-0.1-0.5-0.1-0.7s0-0.5,0.1-0.7c0.1-0.2,0.2-0.4,0.3-0.6s0.3-0.3,0.5-0.4
		c0.2-0.1,0.4-0.1,0.7-0.1s0.5,0,0.7,0.1c0.2,0.1,0.4,0.2,0.5,0.4c0.1,0.1,0.2,0.3,0.3,0.5c0,0.2,0.1,0.4,0.1,0.6v0.3h-2.8
		c0,0.1,0,0.2,0,0.4c0,0.1,0.1,0.3,0.2,0.4c0.1,0.1,0.2,0.2,0.4,0.3c0.2,0.1,0.4,0.1,0.6,0.1s0.4,0,0.7-0.1c0.2-0.1,0.4-0.2,0.5-0.4
		L56.7,133.1z M56.4,131.8c0-0.1,0-0.3-0.1-0.4c-0.1-0.1-0.1-0.2-0.2-0.3c-0.1-0.1-0.2-0.2-0.4-0.2c-0.1,0-0.3-0.1-0.5-0.1
		s-0.4,0-0.6,0.1c-0.1,0.1-0.3,0.2-0.4,0.3c-0.1,0.1-0.1,0.2-0.2,0.4s0,0.2,0,0.2H56.4z"/>
	<path fill="#222222" d="M57.8,132.9c0.1,0.2,0.2,0.3,0.4,0.4s0.4,0.1,0.6,0.1c0.1,0,0.2,0,0.3,0s0.2-0.1,0.2-0.1
		c0.1,0,0.1-0.1,0.2-0.2c0-0.1,0-0.1,0-0.3s0-0.3-0.1-0.3c-0.1-0.1-0.2-0.1-0.4-0.2c-0.1,0-0.3-0.1-0.5-0.1c-0.1,0-0.3-0.1-0.5-0.1
		s-0.3-0.1-0.4-0.3c-0.1-0.1-0.1-0.3-0.1-0.5s0-0.3,0.1-0.4c0-0.1,0.1-0.2,0.3-0.3c0.1,0,0.2-0.1,0.4-0.2c0.1,0,0.3,0,0.4,0
		c0.3,0,0.5,0,0.7,0.1c0.2,0.1,0.4,0.3,0.5,0.5l-0.4,0.2c-0.1-0.1-0.2-0.3-0.3-0.4c-0.1-0.1-0.3-0.1-0.5-0.1c-0.1,0-0.1,0-0.2,0
		c-0.1,0-0.1,0-0.2,0.1c0,0-0.1,0.1-0.2,0.2c0,0,0,0.1,0,0.2c0,0.1,0,0.3,0.1,0.3c0.1,0.1,0.2,0.1,0.4,0.2c0.1,0,0.3,0.1,0.5,0.1
		c0.2,0,0.3,0.1,0.5,0.1c0.1,0,0.3,0.1,0.4,0.3c0.1,0.1,0.1,0.3,0.1,0.5s0,0.3-0.1,0.5s-0.1,0.2-0.3,0.3c-0.1,0.1-0.2,0.1-0.4,0.2
		c-0.1,0-0.3,0-0.5,0c-0.3,0-0.6,0-0.8-0.2c-0.2-0.1-0.4-0.3-0.6-0.5L57.8,132.9z"/>
	<path fill="#222222" d="M60.9,129c0-0.1,0-0.2,0.1-0.2c0,0,0.1-0.1,0.2-0.1c0.1,0,0.2,0,0.2,0.1c0,0,0.1,0.1,0.1,0.2s0,0.2-0.1,0.2
		c0,0-0.1,0.1-0.2,0.1s-0.2,0-0.2-0.1C61,129.2,60.9,129.1,60.9,129z M61.1,130.4h0.4v3.4h-0.4V130.4z"/>
	<path fill="#222222" d="M66.2,133.5c0,0.4,0,0.8-0.2,1c-0.1,0.2-0.3,0.5-0.5,0.6c-0.2,0.1-0.4,0.2-0.6,0.3c-0.2,0-0.4,0.1-0.6,0.1
		s-0.3,0-0.5,0c-0.1,0-0.3-0.1-0.5-0.1c-0.1,0-0.3-0.1-0.4-0.2c-0.1-0.1-0.2-0.2-0.3-0.3l0.3-0.3c0.1,0.2,0.3,0.4,0.6,0.5
		c0.2,0.1,0.5,0.1,0.8,0.1c0.2,0,0.4,0,0.6-0.1c0.1,0,0.3-0.1,0.4-0.2c0.1-0.1,0.2-0.2,0.2-0.3c0-0.1,0.1-0.2,0.1-0.3
		c0-0.1,0-0.2,0-0.3c0-0.1,0-0.2,0-0.2v-0.5l0,0c-0.1,0.2-0.3,0.4-0.5,0.5c-0.2,0.1-0.5,0.2-0.8,0.2c-0.2,0-0.5,0-0.7-0.1
		c-0.2-0.1-0.4-0.2-0.6-0.4c-0.2-0.2-0.3-0.3-0.4-0.6c-0.1-0.2-0.1-0.4-0.1-0.7c0-0.3,0-0.5,0.1-0.7s0.2-0.4,0.4-0.6
		c0.1-0.1,0.4-0.3,0.6-0.4c0.2-0.1,0.5-0.1,0.7-0.1c0.3,0,0.6,0,0.8,0.2c0.2,0.1,0.4,0.3,0.5,0.5l0,0v-0.6H66L66.2,133.5L66.2,133.5
		z M65.8,132c0-0.2,0-0.4-0.1-0.5c-0.1-0.1-0.2-0.3-0.3-0.4c-0.1-0.1-0.3-0.2-0.4-0.3c-0.1-0.1-0.3-0.1-0.5-0.1s-0.4,0-0.5,0.1
		c-0.1,0.1-0.3,0.2-0.4,0.3c-0.1,0.1-0.2,0.3-0.3,0.4s-0.1,0.3-0.1,0.5s0,0.4,0.1,0.5c0,0.1,0.2,0.3,0.3,0.4s0.3,0.2,0.4,0.3
		c0.1,0.1,0.3,0.1,0.5,0.1s0.4,0,0.5-0.1c0.1-0.1,0.3-0.2,0.4-0.3c0.1-0.1,0.2-0.3,0.3-0.4C65.7,132.4,65.8,132.2,65.8,132z"/>
	<path fill="#222222" d="M67.2,131.3c0,0,0-0.1,0-0.2c0-0.1,0-0.2,0-0.3c0-0.1,0-0.2,0-0.3c0-0.1,0-0.1,0-0.2h0.4c0,0.1,0,0.2,0,0.4
		c0,0.1,0,0.2,0,0.2l0,0c0.1-0.2,0.2-0.3,0.4-0.5c0.2-0.1,0.4-0.2,0.7-0.2c0.3,0,0.5,0,0.7,0.1c0.2,0.1,0.3,0.2,0.4,0.3
		c0.1,0.1,0.1,0.3,0.2,0.5c0,0.2,0,0.4,0,0.6v2h-0.3v-2c0-0.1,0-0.3,0-0.4c0-0.1,0-0.2-0.1-0.3c0-0.1-0.1-0.2-0.2-0.2
		s-0.2-0.1-0.4-0.1c-0.1,0-0.3,0-0.5,0.1c-0.1,0-0.3,0.1-0.4,0.2c-0.1,0.1-0.2,0.2-0.2,0.4s-0.1,0.4-0.1,0.6v1.7h-0.4L67.2,131.3
		L67.2,131.3z"/>
	<path fill="#222222" d="M74.4,133.1c-0.2,0.2-0.4,0.4-0.6,0.6c-0.2,0.1-0.5,0.2-0.9,0.2c-0.2,0-0.5,0-0.7-0.1
		c-0.2-0.1-0.4-0.2-0.6-0.4c-0.2-0.2-0.3-0.3-0.3-0.6c0-0.3-0.1-0.5-0.1-0.7s0-0.5,0.1-0.7s0.2-0.4,0.3-0.6s0.3-0.3,0.5-0.4
		c0.2-0.1,0.4-0.1,0.7-0.1s0.5,0,0.7,0.1c0.2,0.1,0.4,0.2,0.5,0.4c0.1,0.1,0.2,0.3,0.3,0.5c0,0.2,0.1,0.4,0.1,0.6v0.3h-2.8
		c0,0.1,0,0.2,0,0.4c0,0.1,0.1,0.3,0.2,0.4c0.1,0.1,0.2,0.2,0.4,0.3c0.2,0.1,0.4,0.1,0.6,0.1s0.4,0,0.7-0.1c0.2-0.1,0.4-0.2,0.5-0.4
		L74.4,133.1z M74,131.8c0-0.1,0-0.3-0.1-0.4c0-0.1-0.1-0.2-0.2-0.3c-0.1-0.1-0.2-0.2-0.4-0.2c-0.1,0-0.3-0.1-0.5-0.1
		s-0.4,0-0.6,0.1c-0.1,0.1-0.3,0.2-0.4,0.3c-0.1,0.1-0.1,0.2-0.2,0.4c0,0.1,0,0.2,0,0.2C71.6,131.8,74,131.8,74,131.8z"/>
	<path fill="#222222" d="M75.4,131.3c0,0,0-0.1,0-0.2c0-0.1,0-0.2,0-0.3c0-0.1,0-0.2,0-0.3c0-0.1,0-0.1,0-0.2h0.4c0,0.1,0,0.2,0,0.4
		c0,0.1,0,0.2,0,0.2c0.1-0.2,0.2-0.4,0.4-0.5c0.2-0.1,0.4-0.2,0.7-0.2H77h0.1v0.4c0,0-0.1,0-0.2,0c-0.2,0-0.4,0-0.5,0.1
		c-0.1,0-0.2,0.1-0.3,0.2c-0.1,0.1-0.1,0.2-0.2,0.4c0,0.1,0,0.3,0,0.5v1.9h-0.5V131.3z"/>
	<path fill="#222222" d="M81.2,131.8c0,0.1,0,0.1,0,0.2v0.1v0.1h0.1c0.1,0,0.3,0,0.4-0.1c0.1-0.1,0.3-0.2,0.4-0.4s0.2-0.4,0.3-0.6
		c0.1-0.2,0.1-0.4,0.1-0.6c0-0.3,0-0.5-0.2-0.8c-0.1-0.2-0.3-0.4-0.5-0.6c-0.2-0.1-0.4-0.3-0.7-0.4c-0.3-0.1-0.5-0.1-0.8-0.1
		s-0.7,0-0.9,0.2c-0.3,0.1-0.5,0.3-0.8,0.5s-0.4,0.5-0.5,0.8c-0.1,0.3-0.2,0.6-0.2,0.9c0,0.3,0,0.6,0.2,0.9c0.1,0.3,0.3,0.5,0.5,0.8
		c0.2,0.3,0.5,0.4,0.8,0.5c0.3,0.1,0.6,0.2,0.9,0.2c0.2,0,0.4,0,0.6-0.1c0.2,0,0.3-0.1,0.5-0.2c0.1-0.1,0.3-0.2,0.5-0.3
		c0.2-0.1,0.2-0.2,0.3-0.4h0.4c-0.1,0.2-0.2,0.4-0.4,0.6c-0.2,0.1-0.3,0.3-0.6,0.4c-0.2,0.1-0.4,0.2-0.7,0.3c-0.2,0-0.5,0.1-0.7,0.1
		c-0.4,0-0.8,0-1.1-0.2c-0.3-0.1-0.6-0.3-0.9-0.6c-0.3-0.3-0.4-0.5-0.6-0.9s-0.2-0.7-0.2-1.1s0.1-0.8,0.2-1.1
		c0.1-0.3,0.3-0.6,0.6-0.9c0.2-0.2,0.5-0.4,0.9-0.6c0.3-0.1,0.7-0.2,1-0.2s0.7,0,1,0.2c0.3,0.1,0.6,0.3,0.8,0.5
		c0.2,0.2,0.4,0.4,0.5,0.7s0.2,0.6,0.2,0.9s0,0.6-0.1,0.9c-0.1,0.3-0.2,0.5-0.4,0.7c-0.1,0.2-0.3,0.3-0.6,0.5
		c-0.2,0.1-0.4,0.1-0.6,0.1c-0.1,0-0.2,0-0.3-0.1c-0.1-0.1-0.1-0.2-0.1-0.4l0,0c-0.1,0.1-0.2,0.2-0.4,0.3c-0.2,0.1-0.3,0.1-0.6,0.1
		c-0.2,0-0.3,0-0.4-0.1c-0.1,0-0.2-0.1-0.3-0.2c-0.1-0.1-0.1-0.2-0.2-0.3c0-0.1,0-0.3,0-0.4c0-0.2,0-0.5,0.1-0.8
		c0.1-0.2,0.2-0.5,0.3-0.7c0.1-0.2,0.3-0.4,0.6-0.5c0.2-0.1,0.5-0.2,0.7-0.2c0.1,0,0.3,0,0.5,0.1c0.2,0.1,0.2,0.2,0.3,0.5l0,0
		l0.2-0.5h0.4L81.2,131.8z M79.2,131.7c0,0.2,0,0.4,0.1,0.5c0.1,0.1,0.3,0.2,0.5,0.2s0.3,0,0.5-0.2c0.1-0.1,0.3-0.2,0.4-0.4
		s0.2-0.3,0.3-0.5c0-0.2,0.1-0.4,0.1-0.5c0-0.2,0-0.4-0.1-0.6c-0.1-0.1-0.2-0.2-0.5-0.2c-0.2,0-0.4,0-0.5,0.2s-0.3,0.2-0.4,0.4
		s-0.2,0.4-0.3,0.6C79.2,131.3,79.2,131.5,79.2,131.7z"/>
	<path fill="#222222" d="M87.2,133.5c0,0.4,0,0.8-0.2,1c-0.1,0.2-0.3,0.5-0.5,0.6c-0.2,0.1-0.4,0.2-0.6,0.3c-0.2,0-0.4,0.1-0.6,0.1
		s-0.3,0-0.5,0c-0.1,0-0.3-0.1-0.5-0.1c-0.1,0-0.3-0.1-0.4-0.2c-0.1-0.1-0.2-0.2-0.3-0.3l0.3-0.3c0.1,0.2,0.3,0.4,0.6,0.5
		c0.2,0.1,0.5,0.1,0.8,0.1c0.2,0,0.4,0,0.6-0.1c0.1,0,0.3-0.1,0.4-0.2c0.1-0.1,0.2-0.2,0.2-0.3c0-0.1,0.1-0.2,0.1-0.3
		c0-0.1,0-0.2,0-0.3c0-0.1,0-0.2,0-0.2v-0.5l0,0c-0.1,0.2-0.3,0.4-0.5,0.5c-0.2,0.1-0.5,0.2-0.8,0.2c-0.2,0-0.5,0-0.7-0.1
		c-0.2-0.1-0.4-0.2-0.6-0.4s-0.3-0.3-0.4-0.6c-0.1-0.2-0.1-0.4-0.1-0.7c0-0.3,0-0.5,0.1-0.7s0.2-0.4,0.4-0.6
		c0.1-0.1,0.4-0.3,0.6-0.4c0.2-0.1,0.5-0.1,0.7-0.1c0.3,0,0.6,0,0.8,0.2c0.2,0.1,0.4,0.3,0.5,0.5l0,0v-0.6H87L87.2,133.5L87.2,133.5
		z M86.8,132c0-0.2,0-0.4-0.1-0.5c-0.1-0.1-0.2-0.3-0.3-0.4c-0.1-0.1-0.3-0.2-0.4-0.3c-0.1-0.1-0.3-0.1-0.5-0.1s-0.4,0-0.5,0.1
		c-0.1,0.1-0.3,0.2-0.4,0.3c-0.1,0.1-0.2,0.3-0.3,0.4c-0.1,0.1-0.1,0.3-0.1,0.5s0,0.4,0.1,0.5c0,0.1,0.2,0.3,0.3,0.4
		c0.1,0.1,0.3,0.2,0.4,0.3c0.1,0.1,0.3,0.1,0.5,0.1s0.4,0,0.5-0.1c0.1-0.1,0.3-0.2,0.4-0.3c0.1-0.1,0.2-0.3,0.3-0.4
		C86.8,132.4,86.8,132.2,86.8,132z"/>
	<path fill="#222222" d="M88.3,131.3c0,0,0-0.1,0-0.2c0-0.1,0-0.2,0-0.3c0-0.1,0-0.2,0-0.3c0-0.1,0-0.1,0-0.2h0.4c0,0.1,0,0.2,0,0.4
		c0,0.1,0,0.2,0,0.2l0,0c0.1-0.2,0.2-0.3,0.4-0.5c0.2-0.1,0.4-0.2,0.7-0.2c0.2,0,0.4,0,0.6,0.2c0.2,0.1,0.3,0.3,0.4,0.6
		c0.1-0.2,0.3-0.4,0.5-0.6c0.2-0.1,0.4-0.2,0.7-0.2c0.3,0,0.5,0,0.7,0.1c0.2,0.1,0.3,0.2,0.4,0.3c0.1,0.1,0.1,0.3,0.2,0.5
		c0,0.2,0,0.4,0,0.6v2H93v-2c0-0.1,0-0.3,0-0.4c0-0.1,0-0.2-0.1-0.3c0-0.1-0.1-0.2-0.2-0.2s-0.2-0.1-0.4-0.1s-0.4,0-0.5,0.1
		c-0.1,0.1-0.2,0.2-0.3,0.3c-0.1,0.1-0.1,0.2-0.1,0.4s0,0.3,0,0.4v1.9h-0.5v-2c0-0.3,0-0.6-0.2-0.8c-0.1-0.2-0.3-0.3-0.5-0.3
		c-0.1,0-0.3,0-0.5,0.1c-0.1,0-0.3,0.1-0.4,0.2c-0.1,0.1-0.2,0.2-0.2,0.4S89,131.8,89,132v1.7h-0.4v-2.4H88.3z"/>
	<path fill="#222222" d="M97.3,132.3c0,0.2,0,0.3,0,0.4s0,0.2,0,0.4c0,0.1,0,0.2,0,0.3c0,0.1,0,0.2,0,0.3h-0.4c0-0.2,0-0.3,0-0.6
		l0,0c-0.1,0.2-0.3,0.4-0.5,0.5c-0.2,0.1-0.4,0.1-0.7,0.1c-0.1,0-0.3,0-0.4,0s-0.3-0.1-0.4-0.2c-0.1-0.1-0.2-0.2-0.3-0.3
		c-0.1-0.1-0.1-0.3-0.1-0.5s0-0.5,0.2-0.6c0.1-0.1,0.3-0.3,0.5-0.3c0.2-0.1,0.4-0.1,0.6-0.1s0.4,0,0.6,0h0.5v-0.1
		c0-0.3-0.1-0.5-0.3-0.6c-0.2-0.1-0.4-0.2-0.7-0.2c-0.4,0-0.8,0.1-1,0.4l-0.2-0.3c0.1-0.1,0.4-0.3,0.6-0.4c0.2-0.1,0.5-0.1,0.7-0.1
		c0.4,0,0.8,0.1,1,0.3s0.4,0.5,0.4,0.9L97.3,132.3L97.3,132.3z M96.4,132c-0.2,0-0.4,0-0.5,0c-0.2,0-0.3,0-0.5,0.1
		c-0.1,0-0.2,0.1-0.3,0.2c-0.1,0.1-0.1,0.2-0.1,0.4c0,0.1,0,0.2,0,0.3c0,0.1,0.1,0.1,0.2,0.2c0.1,0,0.1,0.1,0.2,0.1s0.2,0,0.3,0
		c0.2,0,0.4,0,0.6-0.1c0.1,0,0.3-0.1,0.4-0.3c0.1-0.1,0.1-0.2,0.2-0.4c0-0.1,0-0.3,0-0.4V132H96.4z"/>
	<path fill="#222222" d="M98.4,129c0-0.1,0-0.2,0.1-0.2c0,0,0.1-0.1,0.2-0.1s0.2,0,0.2,0.1c0,0,0.1,0.1,0.1,0.2s0,0.2-0.1,0.2
		c0,0-0.1,0.1-0.2,0.1s-0.2,0-0.2-0.1C98.4,129.2,98.4,129.1,98.4,129z M98.5,130.4h0.4v3.4h-0.4V130.4z"/>
	<path fill="#222222" d="M100.3,128.2h0.4v5.6h-0.4V128.2z"/>
	<path fill="#222222" d="M102,133.4c0-0.1,0-0.2,0.1-0.2c0,0,0.1-0.1,0.2-0.1s0.2,0,0.2,0.1c0,0,0.1,0.1,0.1,0.2
		c0,0.1,0,0.2-0.1,0.2c0,0-0.1,0.1-0.2,0.1s-0.2,0-0.2-0.1C102,133.6,102,133.5,102,133.4z"/>
	<path fill="#222222" d="M106.8,133.3c-0.2,0.2-0.4,0.3-0.6,0.4c-0.2,0.1-0.4,0.1-0.7,0.1s-0.5,0-0.7-0.1c-0.2-0.1-0.4-0.2-0.6-0.4
		c-0.1-0.1-0.3-0.3-0.4-0.6c-0.1-0.3-0.1-0.5-0.1-0.7s0-0.5,0.1-0.7s0.2-0.4,0.4-0.6c0.1-0.1,0.3-0.3,0.6-0.4
		c0.2-0.1,0.5-0.1,0.7-0.1s0.5,0,0.7,0.1c0.2,0.1,0.4,0.2,0.6,0.4l-0.3,0.3c-0.1-0.1-0.3-0.2-0.4-0.3c-0.1-0.1-0.3-0.1-0.5-0.1
		s-0.4,0-0.6,0.1c-0.2,0.1-0.3,0.2-0.4,0.3c-0.1,0.1-0.2,0.3-0.3,0.4c0,0.2-0.1,0.3-0.1,0.5s0,0.4,0.1,0.5c0,0.2,0.1,0.3,0.3,0.4
		c0.1,0.1,0.2,0.2,0.4,0.3c0.2,0.1,0.3,0.1,0.6,0.1c0.2,0,0.4,0,0.5-0.1c0.1-0.1,0.3-0.2,0.4-0.3L106.8,133.3z"/>
	<path fill="#222222" d="M107.2,132.1c0-0.2,0-0.5,0.1-0.7c0.1-0.2,0.2-0.4,0.4-0.6c0.1-0.1,0.3-0.3,0.6-0.4
		c0.3-0.1,0.5-0.1,0.7-0.1s0.5,0,0.7,0.1c0.2,0.1,0.4,0.2,0.6,0.4c0.1,0.2,0.3,0.3,0.4,0.6c0.1,0.2,0.1,0.5,0.1,0.7s0,0.5-0.1,0.7
		s-0.2,0.4-0.4,0.6c-0.2,0.1-0.3,0.3-0.6,0.4c-0.2,0.1-0.5,0.1-0.7,0.1s-0.5,0-0.7-0.1c-0.2-0.1-0.4-0.2-0.6-0.4
		c-0.1-0.1-0.3-0.3-0.4-0.6C107.3,132.5,107.2,132.3,107.2,132.1z M107.7,132.1c0,0.2,0,0.4,0.1,0.5c0,0.2,0.1,0.3,0.3,0.4
		c0.1,0.1,0.2,0.2,0.4,0.3c0.2,0.1,0.3,0.1,0.6,0.1c0.2,0,0.4,0,0.6-0.1c0.2-0.1,0.3-0.2,0.4-0.3c0.1-0.1,0.2-0.3,0.3-0.4
		c0-0.2,0.1-0.3,0.1-0.5s0-0.4-0.1-0.5c0-0.2-0.1-0.3-0.3-0.4c-0.1-0.1-0.2-0.2-0.4-0.3c-0.2-0.1-0.3-0.1-0.6-0.1
		c-0.2,0-0.4,0-0.6,0.1c-0.2,0.1-0.3,0.2-0.4,0.3c-0.1,0.1-0.2,0.3-0.3,0.4C107.7,131.7,107.7,131.9,107.7,132.1z"/>
	<path fill="#222222" d="M111.8,131.3c0,0,0-0.1,0-0.2c0-0.1,0-0.2,0-0.3c0-0.1,0-0.2,0-0.3c0-0.1,0-0.1,0-0.2h0.4
		c0,0.1,0,0.2,0,0.4c0,0.1,0,0.2,0,0.2l0,0c0.1-0.2,0.2-0.3,0.4-0.5c0.2-0.1,0.4-0.2,0.7-0.2c0.2,0,0.4,0,0.6,0.2
		c0.2,0.1,0.3,0.3,0.4,0.6c0.1-0.2,0.3-0.4,0.5-0.6c0.2-0.1,0.4-0.2,0.7-0.2c0.3,0,0.5,0,0.7,0.1c0.2,0.1,0.3,0.2,0.4,0.3
		c0.1,0.1,0.1,0.3,0.2,0.5c0,0.2,0,0.4,0,0.6v2h-0.4v-2c0-0.1,0-0.3,0-0.4c0-0.1,0-0.2-0.1-0.3c0-0.1-0.1-0.2-0.2-0.2
		s-0.2-0.1-0.4-0.1c-0.2,0-0.4,0-0.5,0.1c-0.1,0.1-0.2,0.2-0.3,0.3c-0.1,0.1-0.1,0.2-0.1,0.4s0,0.3,0,0.4v1.9h-0.4v-2
		c0-0.3,0-0.6-0.2-0.8c-0.1-0.2-0.3-0.3-0.5-0.3c-0.1,0-0.3,0-0.5,0.1c-0.1,0-0.3,0.1-0.4,0.2c-0.1,0.1-0.2,0.2-0.2,0.4
		s-0.1,0.4-0.1,0.6v1.7h-0.4L111.8,131.3L111.8,131.3z"/>
</g>
</svg>
