<?xml version="1.0" encoding="utf-8"?>
<!-- Generator: Adobe Illustrator 18.1.1, SVG Export Plug-In . SVG Version: 6.00 Build 0)  -->
<svg version="1.1" id="Layer_1" xmlns="http://www.w3.org/2000/svg" xmlns:xlink="http://www.w3.org/1999/xlink" x="0px" y="0px"
	 viewBox="0 0 212.8 42.5" enable-background="new 0 0 212.8 42.5" xml:space="preserve">
<path fill="#4FBA6F" d="M41.4,6.9V1.1H15.7C7.8,1.1,1.4,7.5,1.4,15.4v0c0,7.9,6.4,14.3,14.3,14.3h11.4c1.6,0,2.9-1.3,2.9-2.9v0
	c0-1.6-1.3-2.9-2.9-2.9H15.6C10.9,24,7,20.2,7,15.4v0c0-4.7,3.8-8.6,8.6-8.6H41.4z"/>
<path fill="#4FBA6F" d="M1.4,35.4v5.8H27c7.9,0,14.3-6.4,14.3-14.3v0c0-7.9-6.4-14.3-14.3-14.3H15.7c-1.6,0-2.9,1.3-2.9,2.9v0
	c0,1.6,1.3,2.9,2.9,2.9h11.5c4.7,0,8.6,3.8,8.6,8.6v0c0,4.7-3.8,8.6-8.6,8.6H1.4z"/>
<g>
	<path fill="#4FBA6F" d="M79.5,5.5c-0.3-0.4-0.7-0.7-1.1-0.9c-0.5-0.2-1-0.3-1.5-0.3c-0.3,0-0.6,0-0.9,0.1c-0.3,0.1-0.6,0.2-0.8,0.3
		s-0.4,0.4-0.6,0.6c-0.1,0.2-0.2,0.5-0.2,0.9c0,0.5,0.2,0.9,0.5,1.2c0.4,0.3,0.8,0.5,1.3,0.7c0.5,0.2,1.1,0.4,1.7,0.6
		s1.2,0.4,1.7,0.8s1,0.8,1.3,1.3c0.4,0.5,0.5,1.3,0.5,2.2c0,0.8-0.1,1.5-0.4,2.1c-0.3,0.6-0.7,1.1-1.2,1.5c-0.5,0.4-1.1,0.7-1.8,0.9
		c-0.7,0.2-1.4,0.3-2.1,0.3c-0.9,0-1.8-0.2-2.7-0.5c-0.9-0.3-1.6-0.8-2.2-1.6l2-2c0.3,0.5,0.8,0.9,1.3,1.2s1.1,0.4,1.7,0.4
		c0.3,0,0.6,0,0.9-0.1c0.3-0.1,0.6-0.2,0.9-0.4s0.5-0.4,0.6-0.6s0.2-0.6,0.2-0.9c0-0.6-0.2-1-0.5-1.3c-0.4-0.3-0.8-0.5-1.3-0.8
		c-0.5-0.2-1.1-0.4-1.7-0.6c-0.6-0.2-1.2-0.4-1.7-0.8c-0.5-0.3-1-0.7-1.3-1.3c-0.4-0.5-0.5-1.2-0.5-2.1c0-0.8,0.2-1.5,0.5-2
		s0.7-1,1.3-1.4c0.5-0.4,1.1-0.7,1.8-0.8c0.7-0.2,1.3-0.3,2-0.3c0.8,0,1.6,0.1,2.3,0.4c0.7,0.2,1.4,0.6,2,1.2L79.5,5.5z"/>
	<path fill="#4FBA6F" d="M89.2,2.3h2.3L98,17.4H95l-1.4-3.4H87l-1.4,3.4h-3L89.2,2.3z M92.6,11.6l-2.3-6.1L88,11.6H92.6z"/>
	<path fill="#4FBA6F" d="M99.8,2.3h4.1l4,10.6L112,2.3h4v15.1h-2.6V4.8h0l-4.6,12.5H107l-4.6-12.5h0v12.5h-2.6V2.3z"/>
	<path fill="#4FBA6F" d="M136.7,5.5c-0.3-0.4-0.7-0.7-1.1-0.9c-0.5-0.2-1-0.3-1.5-0.3c-0.3,0-0.6,0-0.9,0.1
		c-0.3,0.1-0.6,0.2-0.8,0.3s-0.4,0.4-0.6,0.6c-0.1,0.2-0.2,0.5-0.2,0.9c0,0.5,0.2,0.9,0.5,1.2c0.4,0.3,0.8,0.5,1.3,0.7
		c0.5,0.2,1.1,0.4,1.7,0.6s1.2,0.4,1.7,0.8s1,0.8,1.3,1.3c0.4,0.5,0.5,1.3,0.5,2.2c0,0.8-0.1,1.5-0.4,2.1c-0.3,0.6-0.7,1.1-1.2,1.5
		c-0.5,0.4-1.1,0.7-1.8,0.9c-0.7,0.2-1.4,0.3-2.1,0.3c-0.9,0-1.8-0.2-2.7-0.5c-0.9-0.3-1.6-0.8-2.2-1.6l2-2c0.3,0.5,0.8,0.9,1.3,1.2
		s1.1,0.4,1.7,0.4c0.3,0,0.6,0,0.9-0.1c0.3-0.1,0.6-0.2,0.9-0.4s0.5-0.4,0.6-0.6s0.2-0.6,0.2-0.9c0-0.6-0.2-1-0.5-1.3
		c-0.4-0.3-0.8-0.5-1.3-0.8c-0.5-0.2-1.1-0.4-1.7-0.6c-0.6-0.2-1.2-0.4-1.7-0.8c-0.5-0.3-1-0.7-1.3-1.3c-0.4-0.5-0.5-1.2-0.5-2.1
		c0-0.8,0.2-1.5,0.5-2s0.7-1,1.3-1.4c0.5-0.4,1.1-0.7,1.8-0.8c0.7-0.2,1.3-0.3,2-0.3c0.8,0,1.6,0.1,2.3,0.4c0.7,0.2,1.4,0.6,2,1.2
		L136.7,5.5z"/>
	<path fill="#4FBA6F" d="M141.5,2.3h2.7v6h7v-6h2.7v15.1h-2.7v-6.6h-7v6.6h-2.7V2.3z"/>
	<path fill="#4FBA6F" d="M162.1,2.3h2.3l6.5,15.1h-3.1l-1.4-3.4H160l-1.4,3.4h-3L162.1,2.3z M165.6,11.6l-2.3-6.1l-2.4,6.1H165.6z"
		/>
	<path fill="#4FBA6F" d="M172.6,2.3h5.2c0.7,0,1.4,0.1,2.1,0.2c0.7,0.1,1.3,0.4,1.8,0.7s0.9,0.8,1.3,1.3c0.3,0.6,0.5,1.3,0.5,2.1
		c0,1.1-0.3,2-0.9,2.7c-0.6,0.7-1.5,1.2-2.6,1.3l4,6.7h-3.2l-3.5-6.4h-2v6.4h-2.7V2.3z M177.4,8.7c0.4,0,0.8,0,1.2-0.1
		c0.4,0,0.7-0.1,1.1-0.3c0.3-0.1,0.6-0.3,0.8-0.6c0.2-0.3,0.3-0.7,0.3-1.2c0-0.4-0.1-0.8-0.3-1.1c-0.2-0.3-0.4-0.5-0.7-0.6
		c-0.3-0.1-0.6-0.2-1-0.3c-0.4,0-0.7-0.1-1.1-0.1h-2.3v4.1H177.4z"/>
	<path fill="#4FBA6F" d="M186.1,2.3h5.1c0.7,0,1.4,0.1,2.1,0.2c0.7,0.1,1.3,0.4,1.8,0.7c0.5,0.3,0.9,0.8,1.2,1.3
		c0.3,0.6,0.5,1.3,0.5,2.1c0,1-0.2,1.7-0.5,2.3s-0.8,1-1.3,1.4s-1.2,0.5-1.9,0.6c-0.7,0.1-1.5,0.2-2.3,0.2h-1.9v6.2h-2.7V2.3z
		 M190.4,8.8c0.4,0,0.8,0,1.2,0c0.4,0,0.8-0.1,1.1-0.3c0.3-0.1,0.6-0.4,0.9-0.6c0.2-0.3,0.3-0.7,0.3-1.2c0-0.5-0.1-0.8-0.3-1.1
		c-0.2-0.3-0.5-0.5-0.8-0.6s-0.7-0.2-1-0.3c-0.4,0-0.8-0.1-1.1-0.1h-1.9v4.2H190.4z"/>
	<path fill="#4FBA6F" d="M199.1,2.3h10v2.4h-7.3v3.7h6.9v2.4h-6.9v4.1h7.7v2.4h-10.4V2.3z"/>
</g>
<g>
	<path fill="#FFFFFF" d="M78.5,37.7h-1.7l-1.3-6.5h0l-1.3,6.5h-1.6l-1.8-8.6h1.5l1.2,6.9h0l1.4-6.9h1.3l1.4,6.9h0l1.2-6.9h1.5
		L78.5,37.7z"/>
	<path fill="#FFFFFF" d="M82.9,33.8c0,0.4,0,0.8,0.1,1.1c0.1,0.4,0.2,0.7,0.3,0.9s0.3,0.5,0.5,0.6c0.2,0.1,0.5,0.2,0.7,0.2
		c0.4,0,0.7-0.1,0.9-0.4c0.2-0.2,0.4-0.5,0.5-0.9l1.1,0.6c-0.2,0.5-0.6,1-1,1.3c-0.4,0.3-1,0.5-1.6,0.5c-1,0-1.7-0.4-2.3-1.2
		c-0.6-0.8-0.8-1.9-0.8-3.3c0-0.7,0.1-1.3,0.2-1.9c0.1-0.6,0.4-1,0.6-1.4s0.6-0.7,1-0.9c0.4-0.2,0.8-0.3,1.3-0.3
		c0.5,0,1,0.1,1.3,0.3c0.4,0.2,0.7,0.5,0.9,0.9c0.2,0.4,0.4,0.8,0.5,1.3c0.1,0.5,0.2,1.1,0.2,1.7v0.7H82.9z M86,32.6
		c0-0.7-0.1-1.3-0.3-1.8c-0.2-0.5-0.6-0.7-1.1-0.7c-0.3,0-0.5,0.1-0.7,0.3c-0.2,0.2-0.4,0.4-0.5,0.6c-0.1,0.3-0.2,0.5-0.3,0.8
		s-0.1,0.5-0.1,0.8H86z"/>
	<path fill="#FFFFFF" d="M89.4,24.8h1.4v5.6h0c0.1-0.4,0.4-0.8,0.7-1.1s0.8-0.4,1.3-0.4c0.4,0,0.8,0.1,1.2,0.3
		c0.3,0.2,0.6,0.5,0.9,0.9c0.2,0.4,0.4,0.9,0.5,1.4s0.2,1.2,0.2,1.8c0,0.7-0.1,1.3-0.2,1.8c-0.1,0.6-0.3,1-0.5,1.5
		c-0.2,0.4-0.5,0.7-0.9,1c-0.3,0.2-0.7,0.3-1.2,0.3c-0.6,0-1-0.2-1.3-0.5c-0.3-0.3-0.5-0.7-0.7-1.2h0v1.3h-1.4V24.8z M90.8,33.4
		c0,0.5,0,0.9,0.1,1.3c0.1,0.4,0.2,0.7,0.3,1s0.3,0.5,0.5,0.7s0.5,0.3,0.7,0.3c0.3,0,0.5-0.1,0.7-0.3c0.2-0.2,0.4-0.4,0.5-0.7
		c0.1-0.3,0.2-0.6,0.3-1c0.1-0.4,0.1-0.8,0.1-1.3c0-0.5,0-0.9-0.1-1.3c-0.1-0.4-0.2-0.8-0.3-1c-0.1-0.3-0.3-0.5-0.5-0.7
		c-0.2-0.2-0.4-0.3-0.7-0.3c-0.3,0-0.5,0.1-0.7,0.3c-0.2,0.2-0.4,0.4-0.5,0.7c-0.1,0.3-0.2,0.6-0.3,1C90.8,32.5,90.8,33,90.8,33.4z"
		/>
	<path fill="#FFFFFF" d="M99.2,33.8v-1.2h5.3v1.2H99.2z"/>
	<path fill="#FFFFFF" d="M113,29.1h1.4v8.6c0,0.6-0.1,1.1-0.2,1.6c-0.1,0.5-0.3,0.9-0.5,1.3c-0.3,0.4-0.6,0.7-1,0.9
		c-0.4,0.2-0.9,0.3-1.5,0.3c-0.6,0-1.1-0.1-1.6-0.4s-0.9-0.6-1.3-1l0.9-1c0.2,0.3,0.6,0.6,0.9,0.8c0.4,0.2,0.7,0.3,1.2,0.3
		c0.4,0,0.6-0.1,0.9-0.2c0.2-0.1,0.4-0.3,0.5-0.6c0.1-0.2,0.2-0.5,0.3-0.9c0.1-0.3,0.1-0.7,0.1-1.1v-1.3h0c-0.1,0.5-0.4,0.9-0.7,1.2
		c-0.3,0.3-0.7,0.5-1.3,0.5c-0.4,0-0.8-0.1-1.2-0.3c-0.3-0.2-0.6-0.6-0.9-1c-0.2-0.4-0.4-0.9-0.5-1.5c-0.1-0.6-0.2-1.2-0.2-1.8
		c0-0.7,0.1-1.3,0.2-1.8c0.1-0.6,0.3-1,0.5-1.4c0.2-0.4,0.5-0.7,0.9-0.9c0.3-0.2,0.7-0.3,1.2-0.3c0.5,0,0.9,0.1,1.3,0.4
		c0.3,0.3,0.6,0.6,0.7,1.1h0.1V29.1z M113,33.4c0-0.5,0-0.9-0.1-1.3c-0.1-0.4-0.2-0.8-0.3-1c-0.1-0.3-0.3-0.5-0.5-0.7
		c-0.2-0.2-0.4-0.3-0.7-0.3c-0.3,0-0.5,0.1-0.7,0.3c-0.2,0.2-0.4,0.4-0.5,0.7c-0.1,0.3-0.2,0.6-0.3,1c-0.1,0.4-0.1,0.8-0.1,1.3
		s0,0.9,0.1,1.3c0.1,0.4,0.2,0.7,0.3,1c0.1,0.3,0.3,0.5,0.5,0.7c0.2,0.2,0.4,0.3,0.7,0.3c0.3,0,0.5-0.1,0.7-0.3s0.4-0.4,0.5-0.7
		c0.1-0.3,0.2-0.6,0.3-1C113,34.3,113,33.9,113,33.4z"/>
	<path fill="#FFFFFF" d="M119.1,29.3c0.3-0.3,0.7-0.5,1.1-0.5c0.1,0,0.2,0,0.2,0l-0.1,1.5c0,0-0.1,0-0.1,0c0,0-0.1,0-0.2,0
		c-0.3,0-0.5,0.1-0.7,0.3s-0.4,0.4-0.5,0.7c-0.1,0.3-0.2,0.6-0.3,1c-0.1,0.4-0.1,0.7-0.1,1.1v4.3h-1.5v-6.4c0-0.3,0-0.7,0-1.1
		c0-0.4,0-0.7-0.1-1.1h1.4c0,0.3,0.1,0.6,0.1,0.9c0,0.3,0,0.6,0,0.9h0C118.5,30.2,118.8,29.7,119.1,29.3z"/>
	<path fill="#FFFFFF" d="M125.3,37.7c0-0.3-0.1-0.5-0.1-0.8c0-0.3,0-0.5,0-0.6h0c-0.1,0.5-0.3,0.9-0.7,1.2s-0.8,0.4-1.3,0.4
		c-0.2,0-0.5,0-0.7-0.1c-0.2-0.1-0.5-0.2-0.7-0.4c-0.2-0.2-0.4-0.5-0.5-0.8c-0.1-0.3-0.2-0.7-0.2-1.2c0-0.6,0.1-1.1,0.3-1.5
		c0.2-0.4,0.5-0.7,0.8-0.9c0.3-0.2,0.7-0.4,1.1-0.5c0.4-0.1,0.8-0.1,1.2-0.1h0.6V32c0-0.7-0.1-1.2-0.4-1.5c-0.3-0.3-0.6-0.5-1-0.5
		c-0.3,0-0.6,0.1-0.9,0.2c-0.3,0.2-0.5,0.4-0.7,0.6l-0.7-0.9c0.3-0.4,0.7-0.7,1.1-0.9c0.5-0.2,0.9-0.3,1.3-0.3
		c0.5,0,0.9,0.1,1.2,0.2c0.3,0.2,0.6,0.4,0.8,0.7c0.2,0.3,0.3,0.7,0.4,1.1c0.1,0.4,0.1,1,0.1,1.5v3.5c0,0.3,0,0.6,0,1
		c0,0.3,0.1,0.6,0.1,0.8H125.3z M125.1,33.5h-0.6c-0.3,0-0.5,0-0.8,0.1s-0.5,0.1-0.7,0.3s-0.3,0.3-0.5,0.5s-0.2,0.5-0.2,0.9
		c0,0.5,0.1,0.9,0.3,1.1c0.2,0.2,0.5,0.4,0.8,0.4c0.3,0,0.5-0.1,0.7-0.3c0.2-0.2,0.4-0.4,0.5-0.7c0.1-0.3,0.2-0.6,0.3-0.9
		c0.1-0.3,0.1-0.6,0.1-0.9V33.5z"/>
	<path fill="#FFFFFF" d="M130.1,29.1v1.3h0c0.1-0.5,0.4-0.9,0.7-1.2s0.7-0.5,1.3-0.5c0.4,0,0.8,0.1,1.2,0.3c0.3,0.2,0.6,0.6,0.9,1
		c0.2,0.4,0.4,0.9,0.5,1.5s0.2,1.2,0.2,1.8s-0.1,1.3-0.2,1.8s-0.3,1-0.5,1.4c-0.2,0.4-0.5,0.7-0.9,0.9s-0.7,0.3-1.2,0.3
		c-0.5,0-0.9-0.1-1.3-0.4c-0.3-0.3-0.6-0.7-0.7-1.1h0v5.3h-1.4V29.1H130.1z M130.1,33.4c0,0.5,0,0.9,0.1,1.3s0.2,0.8,0.3,1
		c0.1,0.3,0.3,0.5,0.5,0.7c0.2,0.2,0.4,0.3,0.7,0.3c0.3,0,0.5-0.1,0.7-0.3c0.2-0.2,0.4-0.4,0.5-0.7c0.1-0.3,0.2-0.6,0.3-1
		s0.1-0.8,0.1-1.3c0-0.5,0-0.9-0.1-1.3c-0.1-0.4-0.2-0.8-0.3-1c-0.1-0.3-0.3-0.5-0.5-0.7c-0.2-0.2-0.4-0.3-0.7-0.3
		c-0.3,0-0.5,0.1-0.7,0.3c-0.2,0.2-0.4,0.4-0.5,0.7s-0.2,0.6-0.3,1C130.2,32.5,130.1,32.9,130.1,33.4z"/>
	<path fill="#FFFFFF" d="M138.4,37.7h-1.5V24.8h1.5v5.8h0c0.1-0.5,0.4-0.9,0.8-1.2c0.4-0.3,0.8-0.5,1.3-0.5c0.5,0,0.8,0.1,1.1,0.3
		c0.3,0.2,0.5,0.4,0.7,0.8s0.3,0.7,0.3,1.1c0.1,0.4,0.1,0.8,0.1,1.2v5.5h-1.5v-5.5c0-0.2,0-0.5,0-0.7c0-0.3-0.1-0.5-0.2-0.7
		s-0.2-0.4-0.4-0.5c-0.2-0.1-0.4-0.2-0.6-0.2c-0.2,0-0.5,0.1-0.7,0.2c-0.2,0.1-0.4,0.3-0.5,0.5c-0.1,0.2-0.3,0.5-0.3,0.8
		c-0.1,0.3-0.1,0.7-0.1,1.1V37.7z"/>
	<path fill="#FFFFFF" d="M146.8,26.6c0,0.3-0.1,0.5-0.3,0.7c-0.2,0.2-0.4,0.3-0.6,0.3c-0.3,0-0.5-0.1-0.6-0.3
		c-0.2-0.2-0.3-0.4-0.3-0.7c0-0.3,0.1-0.5,0.3-0.7c0.2-0.2,0.4-0.3,0.6-0.3c0.3,0,0.5,0.1,0.6,0.3C146.7,26.1,146.8,26.3,146.8,26.6
		z M145.1,37.7v-8.6h1.4v8.6H145.1z"/>
	<path fill="#FFFFFF" d="M151.7,38c-0.5,0-1-0.1-1.3-0.3c-0.4-0.2-0.7-0.5-1-0.9c-0.3-0.4-0.4-0.9-0.6-1.4c-0.1-0.6-0.2-1.2-0.2-1.9
		c0-0.7,0.1-1.3,0.2-1.9c0.1-0.6,0.3-1,0.6-1.4c0.3-0.4,0.6-0.7,1-0.9c0.4-0.2,0.8-0.3,1.3-0.3c0.5,0,0.8,0.1,1.1,0.2
		s0.6,0.3,0.7,0.5l-0.7,1.1c-0.1-0.2-0.3-0.3-0.5-0.4s-0.4-0.1-0.7-0.1c-0.3,0-0.5,0.1-0.7,0.2c-0.2,0.2-0.4,0.4-0.5,0.7
		c-0.1,0.3-0.2,0.6-0.3,1s-0.1,0.8-0.1,1.3c0,0.5,0,0.9,0.1,1.3c0.1,0.4,0.2,0.7,0.3,1c0.1,0.3,0.3,0.5,0.5,0.7
		c0.2,0.2,0.5,0.2,0.8,0.2c0.3,0,0.5-0.1,0.7-0.2s0.3-0.2,0.5-0.4l0.6,1.1C153.1,37.7,152.5,38,151.7,38z"/>
	<path fill="#FFFFFF" d="M161.7,37.7v-1.3h0c-0.1,0.5-0.4,0.9-0.7,1.2c-0.3,0.3-0.7,0.5-1.3,0.5c-0.4,0-0.8-0.1-1.2-0.3
		c-0.3-0.2-0.6-0.6-0.9-1c-0.2-0.4-0.4-0.9-0.5-1.5c-0.1-0.6-0.2-1.2-0.2-1.8c0-0.7,0.1-1.3,0.2-1.8c0.1-0.6,0.3-1,0.5-1.4
		c0.2-0.4,0.5-0.7,0.9-0.9c0.3-0.2,0.7-0.3,1.2-0.3c0.5,0,0.9,0.1,1.3,0.4s0.6,0.6,0.7,1.1h0v-5.6h1.4v12.9H161.7z M161.7,33.4
		c0-0.5,0-0.9-0.1-1.3c-0.1-0.4-0.2-0.8-0.3-1c-0.1-0.3-0.3-0.5-0.5-0.7c-0.2-0.2-0.4-0.3-0.7-0.3c-0.3,0-0.5,0.1-0.7,0.3
		c-0.2,0.2-0.4,0.4-0.5,0.7c-0.1,0.3-0.2,0.6-0.3,1c-0.1,0.4-0.1,0.8-0.1,1.3c0,0.5,0,0.9,0.1,1.3c0.1,0.4,0.2,0.7,0.3,1
		c0.1,0.3,0.3,0.5,0.5,0.7c0.2,0.2,0.4,0.3,0.7,0.3c0.3,0,0.5-0.1,0.7-0.3s0.4-0.4,0.5-0.7c0.1-0.3,0.2-0.6,0.3-1
		C161.7,34.3,161.7,33.9,161.7,33.4z"/>
	<path fill="#FFFFFF" d="M166.6,33.8c0,0.4,0,0.8,0.1,1.1c0.1,0.4,0.2,0.7,0.3,0.9s0.3,0.5,0.5,0.6c0.2,0.1,0.5,0.2,0.7,0.2
		c0.4,0,0.7-0.1,0.9-0.4c0.2-0.2,0.4-0.5,0.5-0.9l1.1,0.6c-0.2,0.5-0.6,1-1,1.3c-0.4,0.3-1,0.5-1.6,0.5c-1,0-1.7-0.4-2.3-1.2
		c-0.6-0.8-0.8-1.9-0.8-3.3c0-0.7,0.1-1.3,0.2-1.9c0.1-0.6,0.4-1,0.6-1.4s0.6-0.7,1-0.9c0.4-0.2,0.8-0.3,1.3-0.3
		c0.5,0,1,0.1,1.3,0.3c0.4,0.2,0.7,0.5,0.9,0.9c0.2,0.4,0.4,0.8,0.5,1.3c0.1,0.5,0.2,1.1,0.2,1.7v0.7H166.6z M169.7,32.6
		c0-0.7-0.1-1.3-0.3-1.8c-0.2-0.5-0.6-0.7-1.1-0.7c-0.3,0-0.5,0.1-0.7,0.3c-0.2,0.2-0.4,0.4-0.5,0.6c-0.1,0.3-0.2,0.5-0.3,0.8
		s-0.1,0.5-0.1,0.8H169.7z"/>
	<path fill="#FFFFFF" d="M176.5,30.8c-0.1-0.2-0.3-0.4-0.6-0.5c-0.2-0.1-0.5-0.2-0.8-0.2c-0.3,0-0.6,0.1-0.8,0.3
		c-0.2,0.2-0.3,0.5-0.3,0.9s0.1,0.7,0.3,0.9s0.6,0.4,1,0.5c0.2,0.1,0.5,0.2,0.7,0.3c0.2,0.1,0.4,0.3,0.6,0.5s0.3,0.4,0.5,0.7
		c0.1,0.3,0.2,0.6,0.2,1c0,0.4-0.1,0.8-0.2,1.2s-0.3,0.6-0.5,0.9s-0.5,0.4-0.8,0.5c-0.3,0.1-0.7,0.2-1,0.2c-0.5,0-1-0.1-1.4-0.3
		c-0.4-0.2-0.8-0.5-1.1-0.8l0.9-0.9c0.2,0.2,0.4,0.4,0.7,0.6c0.3,0.2,0.6,0.3,1,0.3c0.4,0,0.7-0.1,0.9-0.4s0.3-0.6,0.3-1
		c0-0.2,0-0.4-0.1-0.6c-0.1-0.2-0.2-0.3-0.3-0.4c-0.1-0.1-0.3-0.2-0.5-0.3c-0.2-0.1-0.4-0.2-0.6-0.2s-0.4-0.2-0.6-0.3
		c-0.2-0.1-0.4-0.3-0.6-0.5c-0.2-0.2-0.3-0.4-0.4-0.7c-0.1-0.3-0.2-0.6-0.2-1c0-0.4,0.1-0.7,0.2-1s0.3-0.6,0.5-0.8
		c0.2-0.2,0.5-0.4,0.8-0.5s0.6-0.2,1-0.2c0.5,0,1,0.1,1.3,0.3c0.4,0.2,0.7,0.4,0.9,0.7L176.5,30.8z"/>
	<path fill="#FFFFFF" d="M180.7,26.6c0,0.3-0.1,0.5-0.3,0.7c-0.2,0.2-0.4,0.3-0.6,0.3c-0.3,0-0.5-0.1-0.6-0.3
		c-0.2-0.2-0.3-0.4-0.3-0.7c0-0.3,0.1-0.5,0.3-0.7c0.2-0.2,0.4-0.3,0.6-0.3c0.3,0,0.5,0.1,0.6,0.3C180.7,26.1,180.7,26.3,180.7,26.6
		z M179.1,37.7v-8.6h1.4v8.6H179.1z"/>
	<path fill="#FFFFFF" d="M187.3,29.1h1.4v8.6c0,0.6-0.1,1.1-0.2,1.6c-0.1,0.5-0.3,0.9-0.5,1.3c-0.3,0.4-0.6,0.7-1,0.9
		c-0.4,0.2-0.9,0.3-1.5,0.3c-0.6,0-1.1-0.1-1.6-0.4s-0.9-0.6-1.3-1l0.9-1c0.2,0.3,0.6,0.6,0.9,0.8c0.4,0.2,0.7,0.3,1.2,0.3
		c0.4,0,0.6-0.1,0.9-0.2c0.2-0.1,0.4-0.3,0.5-0.6c0.1-0.2,0.2-0.5,0.3-0.9c0.1-0.3,0.1-0.7,0.1-1.1v-1.3h0c-0.1,0.5-0.4,0.9-0.7,1.2
		c-0.3,0.3-0.7,0.5-1.3,0.5c-0.4,0-0.8-0.1-1.2-0.3c-0.3-0.2-0.6-0.6-0.9-1c-0.2-0.4-0.4-0.9-0.5-1.5c-0.1-0.6-0.2-1.2-0.2-1.8
		c0-0.7,0.1-1.3,0.2-1.8c0.1-0.6,0.3-1,0.5-1.4c0.2-0.4,0.5-0.7,0.9-0.9c0.3-0.2,0.7-0.3,1.2-0.3c0.5,0,0.9,0.1,1.3,0.4
		c0.3,0.3,0.6,0.6,0.7,1.1h0.1V29.1z M187.3,33.4c0-0.5,0-0.9-0.1-1.3c-0.1-0.4-0.2-0.8-0.3-1c-0.1-0.3-0.3-0.5-0.5-0.7
		c-0.2-0.2-0.4-0.3-0.7-0.3c-0.3,0-0.5,0.1-0.7,0.3c-0.2,0.2-0.4,0.4-0.5,0.7c-0.1,0.3-0.2,0.6-0.3,1c-0.1,0.4-0.1,0.8-0.1,1.3
		s0,0.9,0.1,1.3c0.1,0.4,0.2,0.7,0.3,1c0.1,0.3,0.3,0.5,0.5,0.7c0.2,0.2,0.4,0.3,0.7,0.3c0.3,0,0.5-0.1,0.7-0.3s0.4-0.4,0.5-0.7
		c0.1-0.3,0.2-0.6,0.3-1C187.3,34.3,187.3,33.9,187.3,33.4z"/>
	<path fill="#FFFFFF" d="M195.6,37.7v-5.5c0-0.2,0-0.5,0-0.7c0-0.3-0.1-0.5-0.2-0.7s-0.2-0.4-0.4-0.5s-0.4-0.2-0.6-0.2
		c-0.2,0-0.5,0.1-0.7,0.2c-0.2,0.1-0.4,0.3-0.5,0.5c-0.1,0.2-0.3,0.5-0.3,0.8s-0.1,0.7-0.1,1.1v4.9h-1.4v-6.4c0-0.3,0-0.7,0-1.1
		c0-0.4,0-0.7-0.1-1.1h1.4c0,0.3,0.1,0.6,0.1,0.9c0,0.3,0,0.5,0,0.6h0c0.2-0.5,0.4-0.9,0.8-1.3s0.8-0.5,1.4-0.5
		c0.5,0,0.8,0.1,1.1,0.3c0.3,0.2,0.5,0.4,0.7,0.8s0.3,0.7,0.3,1.1c0.1,0.4,0.1,0.8,0.1,1.2v5.5H195.6z"/>
	<path fill="#FFFFFF" d="M200.4,33.8c0,0.4,0,0.8,0.1,1.1c0.1,0.4,0.2,0.7,0.3,0.9s0.3,0.5,0.5,0.6c0.2,0.1,0.5,0.2,0.7,0.2
		c0.4,0,0.7-0.1,0.9-0.4c0.2-0.2,0.4-0.5,0.5-0.9l1.1,0.6c-0.2,0.5-0.6,1-1,1.3c-0.4,0.3-1,0.5-1.6,0.5c-1,0-1.7-0.4-2.3-1.2
		c-0.6-0.8-0.8-1.9-0.8-3.3c0-0.7,0.1-1.3,0.2-1.9c0.1-0.6,0.4-1,0.6-1.4s0.6-0.7,1-0.9c0.4-0.2,0.8-0.3,1.3-0.3
		c0.5,0,1,0.1,1.3,0.3c0.4,0.2,0.7,0.5,0.9,0.9c0.2,0.4,0.4,0.8,0.5,1.3c0.1,0.5,0.2,1.1,0.2,1.7v0.7H200.4z M203.5,32.6
		c0-0.7-0.1-1.3-0.3-1.8c-0.2-0.5-0.6-0.7-1.1-0.7c-0.3,0-0.5,0.1-0.7,0.3c-0.2,0.2-0.4,0.4-0.5,0.6c-0.1,0.3-0.2,0.5-0.3,0.8
		s-0.1,0.5-0.1,0.8H203.5z"/>
	<path fill="#FFFFFF" d="M209.1,29.3c0.3-0.3,0.7-0.5,1.1-0.5c0.1,0,0.2,0,0.2,0l-0.1,1.5c0,0-0.1,0-0.1,0c0,0-0.1,0-0.2,0
		c-0.3,0-0.5,0.1-0.7,0.3s-0.4,0.4-0.5,0.7c-0.1,0.3-0.2,0.6-0.3,1c-0.1,0.4-0.1,0.7-0.1,1.1v4.3H207v-6.4c0-0.3,0-0.7,0-1.1
		c0-0.4,0-0.7-0.1-1.1h1.4c0,0.3,0.1,0.6,0.1,0.9c0,0.3,0,0.6,0,0.9h0C208.6,30.2,208.8,29.7,209.1,29.3z"/>
</g>
</svg>
