<?xml version="1.0" encoding="utf-8"?>
<!-- Generator: Adobe Illustrator 19.1.1, SVG Export Plug-In . SVG Version: 6.00 Build 0)  -->
<svg version="1.1" id="Layer_1" xmlns="http://www.w3.org/2000/svg" xmlns:xlink="http://www.w3.org/1999/xlink" x="0px" y="0px"
	 viewBox="-199 375.5 212.8 42.5" style="enable-background:new -199 375.5 212.8 42.5;" xml:space="preserve">
<style type="text/css">
	.st0{fill:#F16322;}
	.st1{fill:#FFFFFF;}
</style>
<path class="st0" d="M-157.6,382.4v-5.8h-25.7c-7.9,0-14.3,6.4-14.3,14.3l0,0c0,7.9,6.4,14.3,14.3,14.3h11.4c1.6,0,2.9-1.3,2.9-2.9
	l0,0c0-1.6-1.3-2.9-2.9-2.9h-11.5c-4.7,0.1-8.6-3.7-8.6-8.5l0,0c0-4.7,3.8-8.6,8.6-8.6h25.8V382.4z"/>
<path class="st0" d="M-197.6,410.9v5.8h25.6c7.9,0,14.3-6.4,14.3-14.3l0,0c0-7.9-6.4-14.3-14.3-14.3h-11.3c-1.6,0-2.9,1.3-2.9,2.9
	l0,0c0,1.6,1.3,2.9,2.9,2.9h11.5c4.7,0,8.6,3.8,8.6,8.6l0,0c0,4.7-3.8,8.6-8.6,8.6h-25.8V410.9z"/>
<g>
	<g>
		<path class="st0" d="M-119.5,381c-0.3-0.4-0.7-0.7-1.1-0.9c-0.5-0.2-1-0.3-1.5-0.3c-0.3,0-0.6,0-0.9,0.1s-0.6,0.2-0.8,0.3
			c-0.2,0.1-0.4,0.4-0.6,0.6c-0.1,0.2-0.2,0.5-0.2,0.9c0,0.5,0.2,0.9,0.5,1.2c0.4,0.3,0.8,0.5,1.3,0.7c0.5,0.2,1.1,0.4,1.7,0.6
			c0.6,0.2,1.2,0.4,1.7,0.8s1,0.8,1.3,1.3c0.4,0.5,0.5,1.3,0.5,2.2c0,0.8-0.1,1.5-0.4,2.1s-0.7,1.1-1.2,1.5s-1.1,0.7-1.8,0.9
			c-0.7,0.2-1.4,0.3-2.1,0.3c-0.9,0-1.8-0.2-2.7-0.5c-0.9-0.3-1.6-0.8-2.2-1.6l2-2c0.3,0.5,0.8,0.9,1.3,1.2c0.5,0.3,1.1,0.4,1.7,0.4
			c0.3,0,0.6,0,0.9-0.1c0.3-0.1,0.6-0.2,0.9-0.4c0.3-0.2,0.5-0.4,0.6-0.6c0.1-0.2,0.2-0.6,0.2-0.9c0-0.6-0.2-1-0.5-1.3
			c-0.4-0.3-0.8-0.5-1.3-0.8c-0.5-0.2-1.1-0.4-1.7-0.6c-0.6-0.2-1.2-0.4-1.7-0.8c-0.5-0.3-1-0.7-1.3-1.3c-0.4-0.5-0.5-1.2-0.5-2.1
			c0-0.8,0.2-1.5,0.5-2s0.7-1,1.3-1.4c0.5-0.4,1.1-0.7,1.8-0.8c0.7-0.2,1.3-0.3,2-0.3c0.8,0,1.6,0.1,2.3,0.4c0.7,0.2,1.4,0.6,2,1.2
			L-119.5,381z"/>
		<path class="st0" d="M-109.8,377.8h2.3l6.5,15.1h-3l-1.4-3.4h-6.6l-1.4,3.4h-3L-109.8,377.8z M-106.4,387.1l-2.3-6.1l-2.3,6.1
			H-106.4z"/>
		<path class="st0" d="M-99.2,377.8h4.1l4,10.6l4.1-10.6h4v15.1h-2.6v-12.6l0,0l-4.6,12.5H-92l-4.6-12.5l0,0v12.5h-2.6V377.8z"/>
		<path class="st0" d="M-62.3,381c-0.3-0.4-0.7-0.7-1.1-0.9c-0.5-0.2-1-0.3-1.5-0.3c-0.3,0-0.6,0-0.9,0.1c-0.3,0.1-0.6,0.2-0.8,0.3
			c-0.2,0.1-0.4,0.4-0.6,0.6c-0.1,0.2-0.2,0.5-0.2,0.9c0,0.5,0.2,0.9,0.5,1.2c0.4,0.3,0.8,0.5,1.3,0.7c0.5,0.2,1.1,0.4,1.7,0.6
			c0.6,0.2,1.2,0.4,1.7,0.8s1,0.8,1.3,1.3c0.4,0.5,0.5,1.3,0.5,2.2c0,0.8-0.1,1.5-0.4,2.1c-0.3,0.6-0.7,1.1-1.2,1.5
			s-1.1,0.7-1.8,0.9s-1.4,0.3-2.1,0.3c-0.9,0-1.8-0.2-2.7-0.5c-0.9-0.3-1.6-0.8-2.2-1.6l2-2c0.3,0.5,0.8,0.9,1.3,1.2
			c0.5,0.3,1.1,0.4,1.7,0.4c0.3,0,0.6,0,0.9-0.1c0.3-0.1,0.6-0.2,0.9-0.4c0.3-0.2,0.5-0.4,0.6-0.6c0.1-0.2,0.2-0.6,0.2-0.9
			c0-0.6-0.2-1-0.5-1.3c-0.4-0.3-0.8-0.5-1.3-0.8c-0.5-0.2-1.1-0.4-1.7-0.6c-0.6-0.2-1.2-0.4-1.7-0.8c-0.5-0.3-1-0.7-1.3-1.3
			c-0.4-0.5-0.5-1.2-0.5-2.1c0-0.8,0.2-1.5,0.5-2s0.7-1,1.3-1.4c0.5-0.4,1.1-0.7,1.8-0.8c0.7-0.2,1.3-0.3,2-0.3
			c0.8,0,1.6,0.1,2.3,0.4c0.7,0.2,1.4,0.6,2,1.2L-62.3,381z"/>
		<path class="st0" d="M-57.5,377.8h2.7v6h7v-6h2.7v15.1h-2.7v-6.6h-7v6.6h-2.7V377.8z"/>
		<path class="st0" d="M-36.9,377.8h2.3l6.5,15.1h-3.1l-1.4-3.4H-39l-1.4,3.4h-3L-36.9,377.8z M-33.4,387.1l-2.3-6.1l-2.4,6.1H-33.4
			z"/>
		<path class="st0" d="M-26.4,377.8h5.2c0.7,0,1.4,0.1,2.1,0.2c0.7,0.1,1.3,0.4,1.8,0.7c0.5,0.3,0.9,0.8,1.3,1.3
			c0.3,0.6,0.5,1.3,0.5,2.1c0,1.1-0.3,2-0.9,2.7c-0.6,0.7-1.5,1.2-2.6,1.3l4,6.7h-3.2l-3.5-6.4h-2v6.4h-2.7L-26.4,377.8L-26.4,377.8
			z M-21.6,384.2c0.4,0,0.8,0,1.2-0.1c0.4,0,0.7-0.1,1.1-0.3c0.3-0.1,0.6-0.3,0.8-0.6c0.2-0.3,0.3-0.7,0.3-1.2
			c0-0.4-0.1-0.8-0.3-1.1c-0.2-0.3-0.4-0.5-0.7-0.6c-0.3-0.1-0.6-0.2-1-0.3c-0.4,0-0.7-0.1-1.1-0.1h-2.3v4.1h2V384.2z"/>
		<path class="st0" d="M-12.9,377.8h5.1c0.7,0,1.4,0.1,2.1,0.2c0.7,0.1,1.3,0.4,1.8,0.7c0.5,0.3,0.9,0.8,1.2,1.3
			c0.3,0.6,0.5,1.3,0.5,2.1c0,1-0.2,1.7-0.5,2.3s-0.8,1-1.3,1.4c-0.5,0.4-1.2,0.5-1.9,0.6s-1.5,0.2-2.3,0.2h-1.9v6.2h-2.7v-15H-12.9
			z M-8.6,384.3c0.4,0,0.8,0,1.2,0s0.8-0.1,1.1-0.3c0.3-0.1,0.6-0.4,0.9-0.6c0.2-0.3,0.3-0.7,0.3-1.2s-0.1-0.8-0.3-1.1
			c-0.2-0.3-0.5-0.5-0.8-0.6s-0.7-0.2-1-0.3c-0.4,0-0.8-0.1-1.1-0.1h-1.9v4.2C-10.2,384.3-8.6,384.3-8.6,384.3z"/>
		<path class="st0" d="M0.1,377.8h10v2.4H2.8v3.7h6.9v2.4H2.8v4.1h7.7v2.4H0.1V377.8z"/>
	</g>
</g>
<g>
	<path class="st1" d="M-120.5,413.2h-1.7l-1.3-6.5l0,0l-1.3,6.5h-1.6l-1.8-8.6h1.5l1.2,6.9l0,0l1.4-6.9h1.3l1.4,6.9l0,0l1.2-6.9h1.5
		L-120.5,413.2z"/>
	<path class="st1" d="M-116.1,409.3c0,0.4,0,0.8,0.1,1.1c0.1,0.4,0.2,0.7,0.3,0.9c0.1,0.2,0.3,0.5,0.5,0.6s0.5,0.2,0.7,0.2
		c0.4,0,0.7-0.1,0.9-0.4c0.2-0.2,0.4-0.5,0.5-0.9l1.1,0.6c-0.2,0.5-0.6,1-1,1.3c-0.4,0.3-1,0.5-1.6,0.5c-1,0-1.7-0.4-2.3-1.2
		c-0.6-0.8-0.8-1.9-0.8-3.3c0-0.7,0.1-1.3,0.2-1.9s0.4-1,0.6-1.4s0.6-0.7,1-0.9c0.4-0.2,0.8-0.3,1.3-0.3s1,0.1,1.3,0.3
		c0.4,0.2,0.7,0.5,0.9,0.9c0.2,0.4,0.4,0.8,0.5,1.3s0.2,1.1,0.2,1.7v0.7h-4.4V409.3z M-113,408.1c0-0.7-0.1-1.3-0.3-1.8
		c-0.2-0.5-0.6-0.7-1.1-0.7c-0.3,0-0.5,0.1-0.7,0.3c-0.2,0.2-0.4,0.4-0.5,0.6c-0.1,0.3-0.2,0.5-0.3,0.8c-0.1,0.3-0.1,0.5-0.1,0.8
		H-113z"/>
	<path class="st1" d="M-109.6,400.3h1.4v5.6l0,0c0.1-0.4,0.4-0.8,0.7-1.1c0.3-0.3,0.8-0.4,1.3-0.4c0.4,0,0.8,0.1,1.2,0.3
		c0.3,0.2,0.6,0.5,0.9,0.9c0.2,0.4,0.4,0.9,0.5,1.4s0.2,1.2,0.2,1.8c0,0.7-0.1,1.3-0.2,1.8c-0.1,0.6-0.3,1-0.5,1.5
		c-0.2,0.4-0.5,0.7-0.9,1c-0.3,0.2-0.7,0.3-1.2,0.3c-0.6,0-1-0.2-1.3-0.5c-0.3-0.3-0.5-0.7-0.7-1.2l0,0v1.3h-1.4V400.3z
		 M-108.2,408.9c0,0.5,0,0.9,0.1,1.3c0.1,0.4,0.2,0.7,0.3,1c0.1,0.3,0.3,0.5,0.5,0.7c0.2,0.2,0.5,0.3,0.7,0.3c0.3,0,0.5-0.1,0.7-0.3
		c0.2-0.2,0.4-0.4,0.5-0.7c0.1-0.3,0.2-0.6,0.3-1c0.1-0.4,0.1-0.8,0.1-1.3s0-0.9-0.1-1.3s-0.2-0.8-0.3-1c-0.1-0.3-0.3-0.5-0.5-0.7
		c-0.2-0.2-0.4-0.3-0.7-0.3c-0.3,0-0.5,0.1-0.7,0.3c-0.2,0.2-0.4,0.4-0.5,0.7c-0.1,0.3-0.2,0.6-0.3,1
		C-108.2,408-108.2,408.5-108.2,408.9z"/>
	<path class="st1" d="M-99.8,409.3v-1.2h5.3v1.2H-99.8z"/>
	<path class="st1" d="M-86,404.6h1.4v8.6c0,0.6-0.1,1.1-0.2,1.6s-0.3,0.9-0.5,1.3c-0.3,0.4-0.6,0.7-1,0.9s-0.9,0.3-1.5,0.3
		s-1.1-0.1-1.6-0.4c-0.5-0.3-0.9-0.6-1.3-1l0.9-1c0.2,0.3,0.6,0.6,0.9,0.8c0.4,0.2,0.7,0.3,1.2,0.3c0.4,0,0.6-0.1,0.9-0.2
		c0.2-0.1,0.4-0.3,0.5-0.6c0.1-0.2,0.2-0.5,0.3-0.9c0.1-0.3,0.1-0.7,0.1-1.1v-1.3l0,0c-0.1,0.5-0.4,0.9-0.7,1.2
		c-0.3,0.3-0.7,0.5-1.3,0.5c-0.4,0-0.8-0.1-1.2-0.3c-0.3-0.2-0.6-0.6-0.9-1c-0.2-0.4-0.4-0.9-0.5-1.5c-0.1-0.6-0.2-1.2-0.2-1.8
		c0-0.7,0.1-1.3,0.2-1.8c0.1-0.6,0.3-1,0.5-1.4c0.2-0.4,0.5-0.7,0.9-0.9c0.3-0.2,0.7-0.3,1.2-0.3s0.9,0.1,1.3,0.4
		c0.3,0.3,0.6,0.6,0.7,1.1h0.1v-1.5H-86z M-86,408.9c0-0.5,0-0.9-0.1-1.3s-0.2-0.8-0.3-1c-0.1-0.3-0.3-0.5-0.5-0.7
		c-0.2-0.2-0.4-0.3-0.7-0.3c-0.3,0-0.5,0.1-0.7,0.3c-0.2,0.2-0.4,0.4-0.5,0.7c-0.1,0.3-0.2,0.6-0.3,1c-0.1,0.4-0.1,0.8-0.1,1.3
		s0,0.9,0.1,1.3c0.1,0.4,0.2,0.7,0.3,1c0.1,0.3,0.3,0.5,0.5,0.7c0.2,0.2,0.4,0.3,0.7,0.3c0.3,0,0.5-0.1,0.7-0.3
		c0.2-0.2,0.4-0.4,0.5-0.7c0.1-0.3,0.2-0.6,0.3-1C-86,409.8-86,409.4-86,408.9z"/>
	<path class="st1" d="M-79.9,404.8c0.3-0.3,0.7-0.5,1.1-0.5c0.1,0,0.2,0,0.2,0l-0.1,1.5h-0.1c0,0-0.1,0-0.2,0
		c-0.3,0-0.5,0.1-0.7,0.3c-0.2,0.2-0.4,0.4-0.5,0.7c-0.1,0.3-0.2,0.6-0.3,1c-0.1,0.4-0.1,0.7-0.1,1.1v4.3h-1.5v-6.4
		c0-0.3,0-0.7,0-1.1c0-0.4,0-0.7-0.1-1.1h1.4c0,0.3,0.1,0.6,0.1,0.9s0,0.6,0,0.9l0,0C-80.5,405.7-80.2,405.2-79.9,404.8z"/>
	<path class="st1" d="M-73.7,413.2c0-0.3-0.1-0.5-0.1-0.8c0-0.3,0-0.5,0-0.6l0,0c-0.1,0.5-0.3,0.9-0.7,1.2s-0.8,0.4-1.3,0.4
		c-0.2,0-0.5,0-0.7-0.1c-0.2-0.1-0.5-0.2-0.7-0.4c-0.2-0.2-0.4-0.5-0.5-0.8s-0.2-0.7-0.2-1.2c0-0.6,0.1-1.1,0.3-1.5
		c0.2-0.4,0.5-0.7,0.8-0.9s0.7-0.4,1.1-0.5s0.8-0.1,1.2-0.1h0.6v-0.4c0-0.7-0.1-1.2-0.4-1.5s-0.6-0.5-1-0.5c-0.3,0-0.6,0.1-0.9,0.2
		c-0.3,0.2-0.5,0.4-0.7,0.6l-0.7-0.9c0.3-0.4,0.7-0.7,1.1-0.9c0.5-0.2,0.9-0.3,1.3-0.3c0.5,0,0.9,0.1,1.2,0.2
		c0.3,0.2,0.6,0.4,0.8,0.7c0.2,0.3,0.3,0.7,0.4,1.1s0.1,1,0.1,1.5v3.5c0,0.3,0,0.6,0,1c0,0.3,0.1,0.6,0.1,0.8h-1.1V413.2z
		 M-73.9,409h-0.6c-0.3,0-0.5,0-0.8,0.1s-0.5,0.1-0.7,0.3c-0.2,0.2-0.3,0.3-0.5,0.5c-0.2,0.2-0.2,0.5-0.2,0.9c0,0.5,0.1,0.9,0.3,1.1
		c0.2,0.2,0.5,0.4,0.8,0.4s0.5-0.1,0.7-0.3s0.4-0.4,0.5-0.7c0.1-0.3,0.2-0.6,0.3-0.9c0.1-0.3,0.1-0.6,0.1-0.9L-73.9,409L-73.9,409z"
		/>
	<path class="st1" d="M-68.9,404.6v1.3l0,0c0.1-0.5,0.4-0.9,0.7-1.2c0.3-0.3,0.7-0.5,1.3-0.5c0.4,0,0.8,0.1,1.2,0.3
		c0.3,0.2,0.6,0.6,0.9,1c0.2,0.4,0.4,0.9,0.5,1.5s0.2,1.2,0.2,1.8c0,0.6-0.1,1.3-0.2,1.8s-0.3,1-0.5,1.4s-0.5,0.7-0.9,0.9
		c-0.4,0.2-0.7,0.3-1.2,0.3s-0.9-0.1-1.3-0.4c-0.3-0.3-0.6-0.7-0.7-1.1l0,0v5.3h-1.4v-12.4H-68.9z M-68.9,408.9c0,0.5,0,0.9,0.1,1.3
		c0.1,0.4,0.2,0.8,0.3,1c0.1,0.3,0.3,0.5,0.5,0.7c0.2,0.2,0.4,0.3,0.7,0.3s0.5-0.1,0.7-0.3c0.2-0.2,0.4-0.4,0.5-0.7
		c0.1-0.3,0.2-0.6,0.3-1c0.1-0.4,0.1-0.8,0.1-1.3s0-0.9-0.1-1.3s-0.2-0.8-0.3-1c-0.1-0.3-0.3-0.5-0.5-0.7c-0.2-0.2-0.4-0.3-0.7-0.3
		s-0.5,0.1-0.7,0.3c-0.2,0.2-0.4,0.4-0.5,0.7c-0.1,0.3-0.2,0.6-0.3,1C-68.8,408-68.9,408.4-68.9,408.9z"/>
	<path class="st1" d="M-60.6,413.2h-1.5v-12.9h1.5v5.8l0,0c0.1-0.5,0.4-0.9,0.8-1.2c0.4-0.3,0.8-0.5,1.3-0.5s0.8,0.1,1.1,0.3
		c0.3,0.2,0.5,0.4,0.7,0.8s0.3,0.7,0.3,1.1c0.1,0.4,0.1,0.8,0.1,1.2v5.5h-1.5v-5.5c0-0.2,0-0.5,0-0.7c0-0.3-0.1-0.5-0.2-0.7
		s-0.2-0.4-0.4-0.5s-0.4-0.2-0.6-0.2c-0.2,0-0.5,0.1-0.7,0.2s-0.4,0.3-0.5,0.5s-0.3,0.5-0.3,0.8c-0.1,0.3-0.1,0.7-0.1,1.1
		L-60.6,413.2L-60.6,413.2z"/>
	<path class="st1" d="M-52.2,402.1c0,0.3-0.1,0.5-0.3,0.7c-0.2,0.2-0.4,0.3-0.6,0.3c-0.3,0-0.5-0.1-0.6-0.3
		c-0.2-0.2-0.3-0.4-0.3-0.7c0-0.3,0.1-0.5,0.3-0.7c0.2-0.2,0.4-0.3,0.6-0.3c0.3,0,0.5,0.1,0.6,0.3
		C-52.3,401.6-52.2,401.8-52.2,402.1z M-53.9,413.2v-8.6h1.4v8.6H-53.9z"/>
	<path class="st1" d="M-47.3,413.5c-0.5,0-1-0.1-1.3-0.3c-0.4-0.2-0.7-0.5-1-0.9c-0.3-0.4-0.4-0.9-0.6-1.4c-0.1-0.6-0.2-1.2-0.2-1.9
		s0.1-1.3,0.2-1.9c0.1-0.6,0.3-1,0.6-1.4c0.3-0.4,0.6-0.7,1-0.9c0.4-0.2,0.8-0.3,1.3-0.3s0.8,0.1,1.1,0.2c0.3,0.1,0.6,0.3,0.7,0.5
		l-0.7,1.1c-0.1-0.2-0.3-0.3-0.5-0.4s-0.4-0.1-0.7-0.1s-0.5,0.1-0.7,0.2c-0.2,0.2-0.4,0.4-0.5,0.7c-0.1,0.3-0.2,0.6-0.3,1
		c-0.1,0.4-0.1,0.8-0.1,1.3s0,0.9,0.1,1.3c0.1,0.4,0.2,0.7,0.3,1c0.1,0.3,0.3,0.5,0.5,0.7s0.5,0.2,0.8,0.2s0.5-0.1,0.7-0.2
		s0.3-0.2,0.5-0.4l0.6,1.1C-45.9,413.2-46.5,413.5-47.3,413.5z"/>
	<path class="st1" d="M-37.3,413.2v-1.3l0,0c-0.1,0.5-0.4,0.9-0.7,1.2c-0.3,0.3-0.7,0.5-1.3,0.5c-0.4,0-0.8-0.1-1.2-0.3
		c-0.3-0.2-0.6-0.6-0.9-1c-0.2-0.4-0.4-0.9-0.5-1.5c-0.1-0.6-0.2-1.2-0.2-1.8c0-0.7,0.1-1.3,0.2-1.8c0.1-0.6,0.3-1,0.5-1.4
		c0.2-0.4,0.5-0.7,0.9-0.9c0.3-0.2,0.7-0.3,1.2-0.3s0.9,0.1,1.3,0.4c0.4,0.3,0.6,0.6,0.7,1.1l0,0v-5.6h1.4v12.9h-1.4V413.2z
		 M-37.3,408.9c0-0.5,0-0.9-0.1-1.3s-0.2-0.8-0.3-1c-0.1-0.3-0.3-0.5-0.5-0.7c-0.2-0.2-0.4-0.3-0.7-0.3s-0.5,0.1-0.7,0.3
		c-0.2,0.2-0.4,0.4-0.5,0.7c-0.1,0.3-0.2,0.6-0.3,1s-0.1,0.8-0.1,1.3s0,0.9,0.1,1.3c0.1,0.4,0.2,0.7,0.3,1c0.1,0.3,0.3,0.5,0.5,0.7
		c0.2,0.2,0.4,0.3,0.7,0.3s0.5-0.1,0.7-0.3c0.2-0.2,0.4-0.4,0.5-0.7c0.1-0.3,0.2-0.6,0.3-1C-37.3,409.8-37.3,409.4-37.3,408.9z"/>
	<path class="st1" d="M-32.4,409.3c0,0.4,0,0.8,0.1,1.1c0.1,0.4,0.2,0.7,0.3,0.9c0.1,0.2,0.3,0.5,0.5,0.6s0.5,0.2,0.7,0.2
		c0.4,0,0.7-0.1,0.9-0.4c0.2-0.2,0.4-0.5,0.5-0.9l1.1,0.6c-0.2,0.5-0.6,1-1,1.3c-0.4,0.3-1,0.5-1.6,0.5c-1,0-1.7-0.4-2.3-1.2
		c-0.6-0.8-0.8-1.9-0.8-3.3c0-0.7,0.1-1.3,0.2-1.9c0.1-0.6,0.4-1,0.6-1.4s0.6-0.7,1-0.9c0.4-0.2,0.8-0.3,1.3-0.3s1,0.1,1.3,0.3
		c0.4,0.2,0.7,0.5,0.9,0.9s0.4,0.8,0.5,1.3s0.2,1.1,0.2,1.7v0.7h-4.4V409.3z M-29.3,408.1c0-0.7-0.1-1.3-0.3-1.8s-0.6-0.7-1.1-0.7
		c-0.3,0-0.5,0.1-0.7,0.3c-0.2,0.2-0.4,0.4-0.5,0.6c-0.1,0.3-0.2,0.5-0.3,0.8c-0.1,0.3-0.1,0.5-0.1,0.8H-29.3z"/>
	<path class="st1" d="M-22.5,406.3c-0.1-0.2-0.3-0.4-0.6-0.5c-0.2-0.1-0.5-0.2-0.8-0.2s-0.6,0.1-0.8,0.3c-0.2,0.2-0.3,0.5-0.3,0.9
		c0,0.4,0.1,0.7,0.3,0.9c0.2,0.2,0.6,0.4,1,0.5c0.2,0.1,0.5,0.2,0.7,0.3s0.4,0.3,0.6,0.5s0.3,0.4,0.5,0.7c0.1,0.3,0.2,0.6,0.2,1
		c0,0.4-0.1,0.8-0.2,1.2s-0.3,0.6-0.5,0.9c-0.2,0.3-0.5,0.4-0.8,0.5c-0.3,0.1-0.7,0.2-1,0.2c-0.5,0-1-0.1-1.4-0.3
		c-0.4-0.2-0.8-0.5-1.1-0.8l0.9-0.9c0.2,0.2,0.4,0.4,0.7,0.6c0.3,0.2,0.6,0.3,1,0.3s0.7-0.1,0.9-0.4c0.2-0.3,0.3-0.6,0.3-1
		c0-0.2,0-0.4-0.1-0.6c-0.1-0.2-0.2-0.3-0.3-0.4s-0.3-0.2-0.5-0.3c-0.2-0.1-0.4-0.2-0.6-0.2s-0.4-0.2-0.6-0.3
		c-0.2-0.1-0.4-0.3-0.6-0.5c-0.2-0.2-0.3-0.4-0.4-0.7c-0.1-0.3-0.2-0.6-0.2-1s0.1-0.7,0.2-1s0.3-0.6,0.5-0.8
		c0.2-0.2,0.5-0.4,0.8-0.5c0.3-0.1,0.6-0.2,1-0.2c0.5,0,1,0.1,1.3,0.3c0.4,0.2,0.7,0.4,0.9,0.7L-22.5,406.3z"/>
	<path class="st1" d="M-18.3,402.1c0,0.3-0.1,0.5-0.3,0.7c-0.2,0.2-0.4,0.3-0.6,0.3c-0.3,0-0.5-0.1-0.6-0.3
		c-0.2-0.2-0.3-0.4-0.3-0.7c0-0.3,0.1-0.5,0.3-0.7c0.2-0.2,0.4-0.3,0.6-0.3c0.3,0,0.5,0.1,0.6,0.3
		C-18.3,401.6-18.3,401.8-18.3,402.1z M-19.9,413.2v-8.6h1.4v8.6H-19.9z"/>
	<path class="st1" d="M-11.7,404.6h1.4v8.6c0,0.6-0.1,1.1-0.2,1.6c-0.1,0.5-0.3,0.9-0.5,1.3c-0.3,0.4-0.6,0.7-1,0.9
		s-0.9,0.3-1.5,0.3s-1.1-0.1-1.6-0.4c-0.5-0.3-0.9-0.6-1.3-1l0.9-1c0.2,0.3,0.6,0.6,0.9,0.8c0.4,0.2,0.7,0.3,1.2,0.3
		c0.4,0,0.6-0.1,0.9-0.2c0.2-0.1,0.4-0.3,0.5-0.6c0.1-0.2,0.2-0.5,0.3-0.9c0.1-0.3,0.1-0.7,0.1-1.1v-1.3l0,0
		c-0.1,0.5-0.4,0.9-0.7,1.2c-0.3,0.3-0.7,0.5-1.3,0.5c-0.4,0-0.8-0.1-1.2-0.3c-0.3-0.2-0.6-0.6-0.9-1c-0.2-0.4-0.4-0.9-0.5-1.5
		c-0.1-0.6-0.2-1.2-0.2-1.8c0-0.7,0.1-1.3,0.2-1.8c0.1-0.6,0.3-1,0.5-1.4c0.2-0.4,0.5-0.7,0.9-0.9c0.3-0.2,0.7-0.3,1.2-0.3
		s0.9,0.1,1.3,0.4c0.3,0.3,0.6,0.6,0.7,1.1h0.1v-1.5H-11.7z M-11.7,408.9c0-0.5,0-0.9-0.1-1.3s-0.2-0.8-0.3-1
		c-0.1-0.3-0.3-0.5-0.5-0.7c-0.2-0.2-0.4-0.3-0.7-0.3s-0.5,0.1-0.7,0.3c-0.2,0.2-0.4,0.4-0.5,0.7c-0.1,0.3-0.2,0.6-0.3,1
		s-0.1,0.8-0.1,1.3s0,0.9,0.1,1.3c0.1,0.4,0.2,0.7,0.3,1c0.1,0.3,0.3,0.5,0.5,0.7c0.2,0.2,0.4,0.3,0.7,0.3s0.5-0.1,0.7-0.3
		c0.2-0.2,0.4-0.4,0.5-0.7c0.1-0.3,0.2-0.6,0.3-1C-11.7,409.8-11.7,409.4-11.7,408.9z"/>
	<path class="st1" d="M-3.4,413.2v-5.5c0-0.2,0-0.5,0-0.7c0-0.3-0.1-0.5-0.2-0.7c-0.1-0.2-0.2-0.4-0.4-0.5c-0.2-0.1-0.4-0.2-0.6-0.2
		c-0.2,0-0.5,0.1-0.7,0.2c-0.2,0.1-0.4,0.3-0.5,0.5c-0.1,0.2-0.3,0.5-0.3,0.8c0,0.3-0.1,0.7-0.1,1.1v4.9h-1.4v-6.4
		c0-0.3,0-0.7,0-1.1s0-0.7-0.1-1.1h1.4c0,0.3,0.1,0.6,0.1,0.9c0,0.3,0,0.5,0,0.6l0,0c0.2-0.5,0.4-0.9,0.8-1.3
		c0.4-0.4,0.8-0.5,1.4-0.5c0.5,0,0.8,0.1,1.1,0.3s0.5,0.4,0.7,0.8c0.2,0.4,0.3,0.7,0.3,1.1c0.1,0.4,0.1,0.8,0.1,1.2v5.5h-1.6V413.2z
		"/>
	<path class="st1" d="M1.4,409.3c0,0.4,0,0.8,0.1,1.1c0.1,0.4,0.2,0.7,0.3,0.9c0.1,0.2,0.3,0.5,0.5,0.6s0.5,0.2,0.7,0.2
		c0.4,0,0.7-0.1,0.9-0.4c0.2-0.2,0.4-0.5,0.5-0.9l1.1,0.6c-0.2,0.5-0.6,1-1,1.3c-0.4,0.3-1,0.5-1.6,0.5c-1,0-1.7-0.4-2.3-1.2
		c-0.6-0.8-0.8-1.9-0.8-3.3c0-0.7,0.1-1.3,0.2-1.9c0.1-0.6,0.4-1,0.6-1.4s0.6-0.7,1-0.9c0.4-0.2,0.8-0.3,1.3-0.3s1,0.1,1.3,0.3
		c0.4,0.2,0.7,0.5,0.9,0.9s0.4,0.8,0.5,1.3s0.2,1.1,0.2,1.7v0.7H1.4V409.3z M4.5,408.1c0-0.7-0.1-1.3-0.3-1.8s-0.6-0.7-1.1-0.7
		c-0.3,0-0.5,0.1-0.7,0.3c-0.2,0.2-0.4,0.4-0.5,0.6c-0.1,0.3-0.2,0.5-0.3,0.8c-0.1,0.3-0.1,0.5-0.1,0.8H4.5z"/>
	<path class="st1" d="M10.1,404.8c0.3-0.3,0.7-0.5,1.1-0.5c0.1,0,0.2,0,0.2,0l-0.1,1.5h-0.1c0,0-0.1,0-0.2,0c-0.3,0-0.5,0.1-0.7,0.3
		c-0.2,0.2-0.4,0.4-0.5,0.7c-0.1,0.3-0.2,0.6-0.3,1c-0.1,0.4-0.1,0.7-0.1,1.1v4.3H8v-6.4c0-0.3,0-0.7,0-1.1c0-0.4,0-0.7-0.1-1.1h1.4
		c0,0.3,0.1,0.6,0.1,0.9s0,0.6,0,0.9l0,0C9.6,405.7,9.8,405.2,10.1,404.8z"/>
</g>
</svg>
